<svg width="40" height="74" viewBox="0 0 40 74" fill="none" xmlns="http://www.w3.org/2000/svg">
<path d="M7.04403 70.3661C6.72668 70.701 6.39937 70.9424 6.50184 70.7997C5.8926 71.5194 5.81799 71.4729 5.8349 71.6627C5.46004 72.1411 4.93676 72.5271 5.37887 71.9988L4.21589 73.2952L4.96481 72.5739C4.90771 72.7173 4.60846 73.0053 4.30682 73.2994L4.19441 73.4097L4.16635 73.4371L4.15262 73.4507L4.09174 73.5064L4.03205 73.555L3.97375 73.6031L3.9451 73.6269C3.93694 73.6341 3.90889 73.6513 3.89178 73.6627C3.81278 73.7134 3.7324 73.7592 3.6546 73.7997C3.57541 73.8415 3.51771 73.8535 3.45225 73.8789C3.38938 73.8988 3.33148 73.9248 3.27517 73.9346C3.16315 73.9582 3.06884 73.9784 3 74.0001L3.1353 73.9896C3.2547 73.9824 3.37264 73.9594 3.48608 73.9212C3.55791 73.898 3.62894 73.8811 3.72544 73.8271C3.77238 73.8026 3.81856 73.7767 3.86392 73.7494L3.93336 73.7064C3.95259 73.6948 3.97107 73.6819 3.98867 73.6679L4.1192 73.5592L4.12755 73.5522L4.18665 73.4986L4.20177 73.483L4.23241 73.4517L4.29428 73.3889L4.95347 72.7173L4.91547 72.8126C5.18706 72.478 5.78675 71.9003 6.00323 71.7065C5.98492 71.7532 6.0283 71.7554 5.79689 71.9934C7.40536 70.3881 6.07923 71.4091 7.38009 70.0432C7.29931 70.1285 7.19485 70.231 7.04403 70.3661ZM8.61349 69.207L9.06535 68.5372L10.0305 67.6217C10.0041 67.5739 10.6571 66.8568 10.1623 67.2892C10.0777 67.3861 9.90998 67.5769 9.76234 67.7188C9.78701 67.5333 10.9691 66.4244 10.6127 66.6204C9.89246 67.3877 9.76115 67.4844 9.36958 68.0089C8.68254 68.6853 8.1692 69.1648 7.82279 69.4548C7.63318 69.67 7.65367 69.7479 7.40715 70.0156L7.57807 69.8372L7.7257 69.9301C7.91412 69.6895 8.12821 69.4983 8.36299 69.2571L7.40575 70.5022C7.87214 70.2594 8.88429 69.1081 9.36162 68.7216C8.72651 69.1572 9.73727 68.2427 8.61349 69.207ZM7.40715 70.0152L7.38049 70.0426L7.40715 70.0152ZM14.877 14.7827C15.1124 15.0153 15.2095 15.0559 15.2577 15.0756L12.6285 12.4347C12.6792 12.5492 13.3967 13.3498 12.8724 12.8601C13.063 13.1221 13.7797 13.783 13.9218 13.8404L13.6832 13.6971C14.3502 14.244 14.6424 14.7819 14.2115 14.4214L14.2632 14.472L16.1767 15.9201C15.575 15.287 15.621 15.5254 14.877 14.7827ZM4.69979 69.6266C5.02908 69.2731 5.05972 69.2194 5.00938 69.2466C4.90181 69.3696 4.79855 69.4964 4.69979 69.6266ZM16.6242 16.2585L17.2235 16.7123C16.9931 16.5207 16.7818 16.3616 16.6242 16.2585ZM11.8581 13.7333C11.8531 13.7363 11.8439 13.7341 11.8525 13.7533L12.1261 13.9523L12.1201 13.9463L11.8581 13.7333ZM28.8223 27.9705L29 28.1387C28.9367 28.0762 28.8778 28.0212 28.8223 27.9705ZM4.31777 7.00006L5.55715 8.10348C5.36773 7.98077 5.94135 8.53749 5.65583 8.3295C5.75015 8.41357 6.18091 8.81994 6.08441 8.68802L5.84386 8.45041C6.55816 8.97109 6.2229 8.55771 7.31901 9.50979C6.7434 8.81315 6.41191 8.58733 6.03149 8.29446L5.71234 8.00059L4.60369 7.16201L4.31777 7.00006ZM20.4157 52.6899L20.4209 52.6693C20.4117 52.6839 20.4121 52.6887 20.4157 52.6899ZM20.4404 52.5864L20.4209 52.6695C20.4678 52.5904 20.6931 52.3333 20.4404 52.5864ZM16.3675 16.1283C16.4017 16.1259 16.4915 16.1714 16.6242 16.2583L16.1767 15.9201L16.3675 16.1283Z" fill="#202020"/>
<path d="M14.4437 15.2977L13.4232 14.3156L13 14.0001C13.4047 14.3617 13.8687 14.7943 14.4437 15.2977ZM26.7824 26.269C28.8822 28.3173 26.1518 25.8791 27.0811 26.8557C27.6737 27.4147 27.9341 27.5614 28.3126 27.9009C26.6115 26.3117 28.722 27.9394 27.0248 26.3183C27.3638 26.4523 28.3381 27.399 28.8763 27.9863C29.4187 28.7175 28.2449 27.5036 28.0037 27.4548C28.6889 28.1016 28.5887 27.9672 28.9273 28.194C29.9549 29.2566 31.2212 30.2269 31.7126 30.9826C32.4946 31.7142 32.4915 31.6181 32.9803 32.0001C33.1722 31.9821 31.9045 30.8257 31.7053 30.4648C31.7549 30.5315 31.851 30.6619 31.8031 30.6437L31.1677 29.971C31.7553 30.625 30.9762 29.989 30.6343 29.6668C30.3896 29.4287 29.9026 28.9558 29.9981 28.9927L30.3881 29.334C29.9484 28.8331 29.2684 28.377 28.8258 27.8263C28.8232 27.7772 29.0232 27.9533 29.0665 27.967C28.4353 27.484 27.9 26.9457 27.0211 26.1757L27.6053 26.5482C26.8278 26.0062 25.3603 24.4883 24.3816 23.399C24.4792 23.5305 24.6746 23.7485 24.5299 23.645C23.8942 23.0649 23.5045 22.5377 23.8421 22.7635C23.1594 22.2582 21.6419 20.4412 20.7168 19.7471L16.4502 16.5698C16.6123 16.7019 16.77 16.8391 16.9231 16.9813C17.1716 17.4082 17.3657 17.5784 16.6842 17.0741C17.3171 17.6052 17.1671 17.3115 18.0492 18.1772C17.6589 17.8816 17.467 17.8992 18.2974 18.7429C20.4918 20.7351 22.1453 21.8581 24.2422 23.6716C24.2444 23.813 25.8063 25.3204 26.5393 26.0788C26.1777 25.8704 25.5998 25.341 25.0073 24.7845L26.4457 26.2289L26.7824 26.269Z" fill="#202020"/>
<path d="M22.2051 21.6894C22.2518 21.7478 22.3032 21.8051 22.3562 21.8638C22.3322 21.8285 22.2876 21.7761 22.2051 21.6894ZM25.4091 24.6324C25.3991 24.628 25.3995 24.6326 25.3939 24.633L25.5845 24.8091L25.4091 24.6324ZM16.3919 16.6457C16.2455 16.5418 16.1464 16.456 16 16.3523L16.2874 16.5979C16.3863 16.6763 16.4385 16.7084 16.3919 16.6457ZM16.0919 16.1063L16.1885 16.1438L16.0545 16.0001C16.0241 16.0011 16.0265 16.0295 16.0919 16.1063ZM34.7827 34.8174L35 35.0001C34.8771 34.8821 34.8185 34.8369 34.7827 34.8174Z" fill="#202020"/>
<path d="M29.2473 29.6829C28.523 28.9853 29.0576 29.7009 28.0419 28.705L28.3334 29.0035C27.5607 28.3322 26.301 27.0557 25.4318 26.2098C25.5708 26.2648 24.9574 25.6453 25.1228 25.6815C24.5163 25.1156 23.916 24.5546 23.5449 24.3205C23.2 23.9393 22.5848 23.4503 22.1465 22.9658C22.3042 23.1972 21.3514 22.4438 22.5331 23.5104C22.4362 23.4256 22.4847 23.4906 22.3888 23.4074C23.0651 24.1777 23.45 24.3751 24.0805 24.9914C24.4184 25.3983 23.4033 24.4482 23.7429 24.8118C24.5644 25.5482 26.1624 27.2777 26.2549 27.0848C26.8369 27.636 26.884 27.7448 27.0281 27.938C28.0866 28.6749 30.319 31.2982 30.5076 31.0969C30.1696 30.7803 29.6355 30.248 29.109 29.8138L29.2473 29.6829ZM17.5179 19.0217L17.6557 19.1607L17.5179 19.0217ZM9.03275 9.57336L9.46162 9.74163C11.2011 11.3887 11.7824 12.0306 13.2818 13.4922C13.3783 13.6215 13.1859 13.4546 13.0884 13.37C14.1536 14.3863 15.6983 15.9555 16.5218 16.648C16.855 16.977 17.6916 17.8782 17.3215 17.5895C17.4956 17.738 17.6926 17.9097 17.8755 18.0973C17.8789 18.1912 17.4436 17.6993 17.395 17.726C17.5401 17.8745 17.589 17.9401 17.6378 17.9593C17.3485 17.7535 17.7397 18.3672 16.5792 17.2224C16.2367 16.6742 17.3987 18.0022 17.2518 17.6239C16.8667 17.2445 16.8655 17.3337 16.8179 17.3155C16.3288 16.8303 16.3717 16.8135 16.4251 16.8125C16.1997 16.6638 15.6326 16.0061 15.3162 15.8058C14.3506 14.8761 15.4578 15.7688 14.8317 15.1573L14.3508 14.9224L13.3352 13.8805C11.7893 12.4464 13.3416 14.2963 11.5548 12.6765C11.8437 12.8365 11.2603 12.0559 10.4856 11.2462C10.9684 11.7116 11.9319 12.5025 12.5137 13.1442C11.7373 12.1965 13.7235 14.3096 13.3799 13.7597C12.8982 13.3874 12.1738 12.69 11.6418 12.1134L11.8364 12.2825C11.2541 11.6855 10.6771 11.3674 9.90419 10.514C9.49203 10.1171 9.60263 10.1586 9.70274 10.2016C9.33934 9.88044 9.00716 9.60065 9.03275 9.57336ZM9.9471 10.4212L10.4811 10.9691C10.3715 10.8222 10.1673 10.6229 9.9471 10.4212ZM15.7424 62.1319L15.5667 62.2851C15.6084 62.2548 15.6739 62.1957 15.7424 62.1319ZM15.0158 13.1331L15.328 13.4475C15.2262 13.3406 15.1221 13.2358 15.0158 13.1331ZM22.5125 19.709L23.0026 20.1347C22.8185 19.9574 22.6644 19.8282 22.5125 19.709ZM19.5217 58.4387L19.538 58.4242L19.6045 58.3463L19.5217 58.4387ZM36.4661 33.96C36.5392 34.0559 36.6162 34.1488 36.6969 34.2386C36.6959 34.2143 36.6083 34.1113 36.4661 33.96ZM22.4221 19.6305L22.4478 19.6602C22.4694 19.6763 22.491 19.6926 22.5125 19.7088L22.4221 19.6305ZM12.2413 9.7185L12.0268 9.53164C12.1247 9.62299 12.1875 9.67598 12.2413 9.7185ZM12.3447 10.492C12.2687 10.4234 12.1954 10.3587 12.136 10.3107L12.3447 10.492ZM1.00001 5.00005L1.44298 5.40086C1.23187 5.19739 1.10012 5.08132 1.00001 5.00005ZM11.297 9.3084C11.2667 9.28962 11.2363 9.27064 11.2146 9.25976C11.2772 9.31374 11.3123 9.33431 11.297 9.3084ZM12.677 64.4344L12.7024 64.4087L12.699 64.3842L12.677 64.4344ZM11.8175 65.6232L11.4533 66.0001C11.5792 65.8787 11.7007 65.753 11.8175 65.6232ZM36.6532 41.5442C36.5231 41.6377 36.2376 41.877 36.3412 41.7362C36.1506 41.9727 36.2259 42.0185 36.6532 41.5442ZM13.9969 61.6553C13.9453 61.7378 13.8734 61.8329 13.8009 61.9282C13.9409 61.7562 14.0646 61.6063 13.9969 61.6553ZM13.8009 61.9282L13.5974 62.1815C13.6708 62.0943 13.7395 62.0087 13.8009 61.9282ZM37.9769 38.0622C37.9956 38.0398 38.0011 38.0038 37.9998 37.9544C37.9722 37.9708 37.9781 38.0084 37.9769 38.0622Z" fill="#202020"/>
<path d="M11.4899 65.9326C11.4523 66.0267 9.91595 67.6854 11.2742 66.3563C11.3104 66.4962 10.4528 67.259 10.1162 67.6391C10.3972 67.3995 10.0434 67.8248 10.1536 67.7774C10.3208 67.589 10.5066 67.3526 10.8068 67.0652C10.9819 66.9704 10.5636 67.4432 10.2005 67.7762C10.6758 67.394 9.72638 68.3901 10.3687 67.8187C11.6349 66.4907 12.5199 65.5423 13.3037 64.5015C12.5856 65.2619 11.7843 66.1152 11.1426 66.6861L11.3213 66.3551C12.0738 65.7367 12.4468 65.2637 13.1282 64.5966L11.5732 66.0705C10.8005 66.7164 11.2606 66.2273 11.8059 65.6544C11.6674 65.7913 11.5384 65.9112 11.4899 65.9326ZM11.8425 64.2445L11.8148 64.2676C11.7954 64.2925 11.7695 64.3218 11.7588 64.3392L11.8425 64.2445ZM3.00042 3.00592L3.15951 3.1074C3.03781 3.01165 2.99527 2.98712 3.00042 3.00592ZM13.1147 63.7099L13.1137 63.7109C13.114 63.7106 13.1144 63.7103 13.1147 63.7099ZM3.93699 4.00655C3.93046 4.00378 3.92372 4.0016 3.91324 3.99567C3.92709 4.00517 3.92947 4.00279 3.93699 4.00655ZM6.44354 3.23085C6.44117 3.22116 6.44255 3.21621 6.43206 3.19861C6.35865 3.13392 6.38873 3.17071 6.44354 3.23085ZM3.94668 4.0018C3.94431 4.00418 3.94411 4.00852 3.93699 4.00635C3.94193 4.00655 3.95004 4.00952 3.94668 4.0018ZM19.9657 19.4584C19.9657 19.4584 19.9291 19.3957 19.8634 19.3047C19.826 19.2816 19.8482 19.3201 19.9657 19.4584ZM16.9714 16.2397L16.9231 16.1744L16.9714 16.2397ZM37.6377 40.7942C37.7609 40.6733 37.8817 40.5498 38 40.4239C37.8755 40.5437 37.7547 40.6672 37.6377 40.7942ZM3.91324 3.99567C3.87267 3.97133 3.81825 3.93354 3.73178 3.86767C3.82657 3.94067 3.8794 3.97648 3.91324 3.99567ZM25.0875 23.8099L24.9836 23.7229L25.0366 23.7834L25.0875 23.8099Z" fill="#202020"/>
<path d="M26.3598 25.042C26.2961 24.9956 26.2616 24.9795 26.2231 24.9561C26.8316 25.4992 27.8573 26.5886 28.0635 26.633C27.8658 26.4402 26.898 25.3825 27.1182 25.5076C26.6958 25.1272 26.158 24.4793 25.9281 24.2768C26.5443 24.9779 25.9315 24.4156 25.4584 23.9989C25.0764 23.5719 25.5996 24.0103 25.2654 23.6477L24.3184 22.7228L25.1249 23.5468L24.799 23.3771L24.8895 23.4527C26.3085 24.7929 24.8937 23.6827 26.3598 25.042ZM26.2231 24.9561C26.1317 24.875 26.0499 24.8051 25.9824 24.7548C26.1142 24.8833 26.1728 24.9259 26.2231 24.9561ZM31.7429 30.706L32 30.9374L31.7429 30.706ZM12.805 13.8266C12.8036 13.7798 12.0452 12.9308 12 13.0046L12.703 13.7419L12.805 13.8266ZM29.8465 46.1561C29.9378 46.0685 30.0286 45.9797 30.1178 45.8892L30.1608 45.8277C30.097 45.8735 29.9305 46.0613 29.8465 46.1561ZM27.3954 25.7274C27.2386 25.5895 27.1634 25.5336 27.1184 25.5076C27.2189 25.5982 27.3147 25.6783 27.3954 25.7274ZM29.6539 46.0652C29.5225 46.162 29.3282 46.3036 29.2814 46.3048C29.047 46.5369 28.9142 46.7316 28.6874 46.9796C28.9474 46.7037 29.2641 46.4002 29.6539 46.0652ZM28.6692 47.0001L28.6874 46.9796L28.6692 47.0001Z" fill="#202020"/>
<path d="M13.277 14.2789L13.5076 14.4823L13.378 14.3859L13.9232 14.9636C14.005 15.0358 14.0857 15.1094 14.165 15.1843C14.1265 15.1503 14.0917 15.1288 14.0677 15.1178L14.241 15.3043C14.7527 15.6873 15.9154 16.7505 16.2746 17.0336C16.7277 17.43 17.2647 17.9331 17.5872 18.2625C17.2852 17.9601 16.87 17.5731 16.9559 17.7275C17.5354 18.3747 17.7305 18.7753 18.8829 19.7413L18.2582 19.1239L19.7946 20.3814C20.2296 20.9244 19.0278 19.7538 18.7846 19.6088C19.941 20.625 20.6699 21.7011 21.2919 22.0868C21.2937 22.2261 21.2978 22.4595 22.0198 23.1626C21.5831 22.5721 22.4994 23.5379 22.1608 23.0339C22.4476 23.2396 22.9338 23.8506 23.0265 23.8401L22.931 23.8022C24.0425 25.1234 24.6142 25.3497 25.1932 25.8121C26.6837 27.2356 27.3102 27.947 28.5144 29.1194C28.5148 29.212 28.7119 29.661 29.1953 30.1312C29.4805 30.2897 30.5887 31.332 30.7796 31.3617C29.9578 30.4792 30.0122 30.734 29.4815 30.2443C29.1395 29.7373 29.5262 30.1232 28.9944 29.4951C29.4315 29.9941 31.1615 31.5591 31.5969 32.1484L31.4043 31.979C32.1776 32.8422 32.1355 33.1954 33.6245 34.4345L34.3268 35.034C34.2873 35.0106 34.2742 35.0164 34.2504 35.0069C34.7805 35.5415 34.9499 35.7591 35.1431 35.9806C35.194 36.0392 35.246 36.0967 35.2993 36.1531C35.3713 36.229 35.4449 36.3035 35.52 36.3764C35.693 36.5454 35.9237 36.7591 36.2859 37.0826C36.1742 36.9828 36.2229 37.0488 36.1114 36.9488C36.2552 37.11 36.4044 37.2664 36.5589 37.4177C36.2741 37.703 36.0185 37.9875 35.7682 38.2697L35.4004 38.6847L35.0922 39.0264C34.7147 39.268 35.0998 38.8877 35.2433 38.6488C34.034 39.7979 32.8722 41.1798 32.2192 41.9904L31.4171 42.7086C31.8417 42.2319 32.3239 41.6129 32.1453 41.7097C31.7394 42.1394 31.8522 42.0904 31.2461 42.6665C31.3045 42.5235 31.5134 42.2366 31.7384 41.9062C30.4397 43.0528 31.6162 42.3295 30.6261 43.0512C30.2398 43.4331 30.0784 43.7176 30.0881 43.8108L29.3219 44.4369C29.3103 44.5794 28.452 45.4392 27.897 46.0099C27.8564 46.1065 28.4223 45.6282 28.611 45.3904C28.6206 45.4836 28.0439 46.1045 27.6562 46.4874C27.3762 46.4906 25.1452 49.02 25.4392 48.4044C23.7477 50.173 21.3222 52.6086 20.234 53.8039C19.8178 54.1411 19.0456 54.9037 19.4422 54.381C18.0437 55.7681 17.465 56.6249 16.0396 57.9646C15.9076 58.0614 16.6657 57.3407 16.5702 57.3438C15.7188 58.2991 14.8617 58.9236 13.4915 60.3571C13.7257 60.1196 13.7662 60.0228 13.7847 59.9758C13.8323 59.974 13.2559 60.5954 12.914 60.9788C12.6975 61.1701 13.1699 60.692 13.0376 60.7884C10.2523 63.42 8.36965 65.6625 5.66001 68.3401C6.43379 67.5755 6.63406 67.1948 6.60456 67.1492L5.84663 67.8985C5.60101 68.2333 5.03292 68.7969 4.59245 69.3023C4.517 69.3431 4.26736 69.5541 4.48127 69.2985C3.68783 69.994 3.14642 70.6147 2.5683 71.2829L2.12341 71.7948L2.06662 71.8602L2.03271 71.9126C2.00943 71.9466 1.98254 71.9783 1.97091 72.0193C1.93419 72.0928 1.91532 72.1755 1.90829 72.2586C1.90228 72.3423 1.9105 72.4289 1.93679 72.5112C1.95264 72.5496 1.96207 72.6008 1.98174 72.6208C1.9896 72.6346 1.99625 72.649 2.00161 72.664L2.00582 72.6761L2.02288 72.6963L2.05699 72.7367L2.12582 72.8186L2.13445 72.8289L2.13565 72.8301C2.08789 72.7775 2.12301 72.816 2.11258 72.8044L2.11438 72.8056L2.118 72.8082L2.13204 72.8186L2.15994 72.8399L2.21392 72.8857C2.2357 72.8957 2.25712 72.9065 2.27813 72.918C2.32328 72.9491 2.35599 72.9495 2.3891 72.967C2.39692 72.9775 2.44047 72.9817 2.4808 72.9859L2.6004 73.0001L2.46515 72.9985C2.44669 72.9975 2.41298 72.9997 2.40094 72.9957C2.3714 72.9875 2.34105 72.9826 2.31044 72.9809L2.24401 72.9546C2.19305 72.9421 2.1479 72.9104 2.09733 72.8775L2.07766 72.8656L2.06742 72.8596L2.06261 72.8566L2.0612 72.8558L2.0606 72.8554C2.06883 72.8646 2.04094 72.8343 2.07907 72.8761L2.07626 72.8732L2.0303 72.8261C1.99914 72.794 1.96797 72.7619 1.93679 72.7297C1.8814 72.6518 1.80275 72.5086 1.78489 72.3564C1.77277 72.2026 1.80134 72.0483 1.86776 71.9088C1.9101 71.8434 1.94181 71.7859 1.99759 71.7201L2.15151 71.5396L2.46897 71.1671L1.85612 71.6478L2.74669 70.5966C2.11659 71.1321 1.71746 71.7175 1.59465 71.7926C1.6079 71.7438 1.64622 71.69 1.69017 71.6321L1.75779 71.5432L1.82361 71.4701C1.9087 71.3747 1.97733 71.291 1.96308 71.2677C1.81579 71.4038 1.71044 71.4904 1.61111 71.6231C1.56014 71.6799 1.53104 71.7416 1.50455 71.799C1.47766 71.8562 1.45117 71.9078 1.44234 71.964L1.40843 72.1245L1.40442 72.2935C1.399 72.3522 1.41445 72.414 1.42368 72.4821C1.4295 72.5508 1.45298 72.6224 1.48127 72.702C1.38335 72.5016 1.34662 72.2307 1.42649 71.956C1.46582 71.8203 1.52883 71.6799 1.62716 71.5596C1.64963 71.5299 1.67572 71.4934 1.69719 71.4689L1.76161 71.3966L1.89365 71.25C2.27382 70.8319 2.65975 70.4191 3.05131 70.0115L5.25024 67.7353C5.42302 67.5419 5.12703 67.9253 5.10897 67.972C5.58095 67.4941 5.91105 67.2538 6.48657 66.6339C6.79941 66.2046 6.15827 66.8725 5.85626 67.1598C5.84503 67.0677 5.99693 66.9231 6.3186 66.5884C6.45927 66.5862 8.15112 64.818 8.66001 64.4806C10.398 62.712 8.19928 64.5818 9.94731 62.9064L10.5397 62.4757C11.4756 61.4249 12.7111 60.0904 13.8567 58.9867L13.6216 59.2254C13.4969 59.4162 13.7797 59.1772 13.9129 59.0794C14.7997 58.2664 15.4699 57.4102 16.0659 56.9759C16.9543 55.9266 18.5137 54.2549 19.5822 53.1076C19.9868 52.9136 18.2201 54.636 17.8228 55.1601L18.8345 54.1547C18.2103 54.7772 18.0028 55.0621 17.6871 55.4936C18.5937 54.632 18.794 54.2517 19.6087 53.3903C19.5716 53.4835 19.7014 53.3893 20.0901 53.005L20.1309 52.8267C20.1437 52.8253 20.1919 52.7879 20.3161 52.6733L21.7703 51.1456C21.4232 51.4314 21.3473 51.3866 20.9598 51.7697C21.1384 51.6729 20.8184 52.0064 20.4305 52.3893C20.724 52.0078 20.0151 52.7257 19.9858 52.6805C20.7634 51.9123 21.7069 50.9571 22.1964 50.4334L22.4255 50.3328C23.1808 49.615 23.9259 48.8048 24.4459 48.3255L24.3216 48.5162C25.2281 47.6552 26.0602 46.7474 26.9099 46.0276C27.6279 45.1698 28.563 44.1208 29.1331 43.4032C29.3964 42.9779 31.5578 41.2017 32.3334 40.2011C32.4024 40.1503 31.7829 40.8709 31.5098 41.2039C32.1158 40.6276 32.4849 40.0577 32.7576 39.9591C31.3972 41.2517 32.8985 39.9569 32.3233 40.5768C32.945 39.9565 33.5865 39.2883 33.8613 38.954C32.8533 39.9563 34.0997 38.4793 33.1162 39.5308C33.4581 39.1224 33.8751 38.659 34.323 38.1879L34.7575 37.7341C34.8649 37.6259 34.9753 37.5207 35.0888 37.4187L35.0308 37.354C35.1058 37.354 35.0835 37.2976 34.9214 37.1058C34.9176 37.1018 34.7007 36.9944 34.7045 36.9982C34.6043 36.889 34.7235 36.9755 34.8291 37.0458C34.9326 37.1143 35.0223 37.1667 34.789 36.9161C34.7041 36.8547 34.6639 36.8304 34.4932 36.6715C34.3412 36.531 34.1914 36.3882 34.0439 36.2432L33.1005 35.2993C32.4801 34.6766 31.9138 34.1275 31.6278 34.0144C30.9991 33.2554 33.0223 35.2621 32.0554 34.1371C32.7283 34.6818 33.4997 35.5888 33.7868 35.7035C33.1637 35.1336 33.6409 35.4147 33.2556 35.0304L32.535 34.4202L32.6795 34.57C31.4781 33.5383 29.7419 31.7374 28.2975 30.3308C26.9992 29.2136 26.04 28.5092 24.5958 27.0567C25.0756 27.4325 23.4373 25.8099 24.4453 26.626C23.8174 25.9141 23.1004 25.3073 23.0496 25.3314C23.6285 25.9318 23.2457 25.5499 23.7257 26.0631C23.3438 25.7742 22.5702 25.0021 22.2812 24.6562C22.4257 24.8062 22.3782 24.7419 22.4249 24.76C21.7489 24.0283 22.041 24.4686 21.5115 23.9805C21.4131 23.7566 20.401 22.8444 19.9675 22.349L19.2008 21.7677C19.6318 22.0772 18.5745 21.1027 18.5229 20.9423C17.996 20.5027 17.5156 20.1724 16.7931 19.4234C17.1293 19.6953 16.1642 18.71 16.212 18.6373C15.0054 17.3245 13.9531 16.7222 12.8422 15.4471C12.8933 15.47 13.1749 15.6706 12.84 15.308C12.5474 15.0511 12.0718 14.5648 11.77 14.2783L11.7812 14.2859L11.764 14.2723C11.6165 14.1323 11.5179 14.0494 11.4999 14.0606C10.9356 13.6179 10.6149 13.4197 9.57106 12.483C9.57487 12.6243 10.4406 13.4305 10.826 13.7689L11.2083 14.0128C11.404 14.4144 12.1228 14.8845 12.316 15.1461C11.5974 14.676 9.91079 12.9418 8.80571 11.9942C9.33708 12.7131 10.688 14.0843 11.8916 15.2559L11.4082 14.6937L12.0331 15.3114L11.5031 14.6391C12.0808 15.2385 12.6104 15.7266 13.1402 16.2609C12.5137 15.6417 12.3656 15.3051 12.7043 15.6712C13.333 16.4302 13.4745 16.3477 14.0028 16.8804C13.7127 16.5798 13.3284 16.1959 13.6165 16.4033C14.5834 17.5281 14.9211 17.756 15.787 18.7919C15.784 18.5598 16.9914 19.9648 17.229 20.0128L16.7955 19.5634L17.8051 20.4272C18.5783 21.3814 16.9416 19.76 18.1946 21.1362C19.4006 22.3565 19.4903 22.2047 20.4566 23.1462C20.0727 22.9012 19.255 22.2055 18.4844 21.437L18.9192 21.934C18.6321 21.7276 17.5719 20.6587 17.0428 20.1254C18.0024 20.9222 16.6545 19.6921 16.3151 19.2331C16.1753 19.2257 16.7514 19.7768 16.0304 19.1666C16.6575 19.7865 16.7544 19.8718 17.5256 20.687C15.8349 18.9486 15.7487 19.3789 14.3022 17.8327C15.0244 18.4902 14.1563 17.4982 14.1052 17.3836C13.7715 17.0681 13.0948 16.4276 12.8064 16.1744L12.9569 16.5135C12.0407 15.6859 11.9392 15.1831 10.8307 14.2783C10.6422 14.205 11.6996 15.1794 11.5067 15.0102C10.0649 13.698 9.72136 13.051 8.56631 11.7615C8.46818 11.7212 8.42183 11.7955 7.94243 11.4196C8.13447 11.4965 7.8463 11.1521 8.37126 11.5898C7.98517 11.1585 7.45701 10.7178 7.07292 10.3809C7.89326 11.2621 6.64108 10.116 6.44945 9.99388C6.01681 9.54506 6.64148 10.071 6.93025 10.3246C6.59052 9.95663 6.25299 9.45401 5.96544 9.33907C6.01179 9.26516 7.11687 10.1666 7.79112 10.8047L7.35708 10.3545C7.6936 10.6272 7.74216 10.6927 8.17319 11.1393C7.78871 10.6646 7.88303 10.6557 8.02651 10.7126C8.07427 10.7774 7.98075 10.6957 8.0261 10.7579C8.36544 11.1254 8.6542 11.379 8.60403 11.2654C9.00417 11.5017 8.16276 10.7268 7.96289 10.4479L7.40544 9.92655L5.30182 8.35556C4.48409 7.60414 4.19252 7.19058 3.64028 6.56446L3.4083 6.47242C2.73044 5.78515 2.10596 5.12157 2.63332 5.46979C2.63473 5.51741 2.73064 5.60167 2.87613 5.75267C2.90542 5.76283 2.94637 5.79013 2.99513 5.82777C3.01359 5.83793 3.02543 5.84172 3.04128 5.84929L1.76723 4.66378C3.11432 5.80008 1.95606 4.60003 2.28817 4.6843C1.99232 4.40879 1.69647 4.13327 1.40061 3.85777L1.29084 3.75557L1.14776 3.59521L1.10844 3.55039C1.10442 3.547 1.09218 3.52967 1.08054 3.51254L1.04843 3.46433C1.0075 3.40158 0.97399 3.3442 0.947901 3.29679C0.895125 3.20097 0.871245 3.14539 0.874052 3.14838C0.932894 3.29236 1.00568 3.43033 1.09138 3.56035C1.09795 3.56974 1.10457 3.57911 1.11125 3.58844L1.14596 3.63784C1.16271 3.66275 1.17936 3.68772 1.19593 3.71275L1.20034 3.71991L1.20095 3.72071L1.25873 3.78426L1.25994 3.78605L1.26235 3.78924L1.27098 3.80059L1.28342 3.81892C1.29606 3.83905 1.29285 3.84323 1.278 3.83526C1.27057 3.83127 1.26034 3.82431 1.2475 3.81494L1.23747 3.80737L1.23667 3.80677L1.17666 3.74103L1.17546 3.73983L1.17285 3.73745L1.16783 3.73267L1.14576 3.71095C1.11365 3.67828 1.07713 3.64163 1.03218 3.59143C0.948302 3.47648 0.862212 3.33564 0.794989 3.1936C0.749838 3.07328 0.707297 2.94857 0.679404 2.83184C0.659537 2.71331 0.646895 2.60214 0.638869 2.5113C0.65547 2.45403 0.66788 2.39564 0.675993 2.33659C0.692248 2.24794 0.702281 2.1306 0.748435 1.99773C0.768702 1.931 0.791979 1.85929 0.818469 1.78438C0.851977 1.71227 0.890505 1.63676 0.932646 1.55927C0.97198 1.47959 1.02435 1.40548 1.08475 1.33237L1.17566 1.2212L1.22342 1.16583L1.22944 1.15905L1.30007 1.09571L1.3075 1.08933L1.32255 1.07658L1.44436 0.971997C1.52824 0.910641 1.65406 0.83434 1.76563 0.777562L1.85271 0.734936L1.92636 0.709034L2.07566 0.661419C2.17499 0.627759 2.27653 0.612217 2.37827 0.602253C2.58015 0.57198 2.77881 0.595685 2.95941 0.623379C3.138 0.6684 3.30295 0.715413 3.43238 0.792309L3.3451 0.771184C3.46509 0.837521 3.60135 0.902669 3.71894 1.00885C3.77914 1.05825 3.84416 1.11423 3.90055 1.16683L3.99567 1.26543L4.41627 1.68856C4.70244 1.97057 4.99318 2.24798 5.28837 2.52066C5.28837 2.47464 6.05553 3.01053 6.43801 3.25436C5.58958 2.3607 6.1364 2.84797 6.10931 2.73562C6.196 2.82924 6.35774 2.9916 6.38564 3.00156C6.53072 3.10614 6.24216 2.80673 6.24035 2.75952C5.75955 2.31428 5.27774 1.85669 4.85654 1.4754C4.66789 1.30285 4.47505 1.13487 4.2782 0.971593L4.1257 0.848881C4.036 0.777966 3.9471 0.714612 3.86222 0.659627C3.68864 0.555043 3.51626 0.491696 3.3764 0.448865C3.57185 0.554051 3.75687 0.647481 3.90677 0.773381C3.98122 0.830754 4.06771 0.900876 4.1257 0.950482L4.22824 1.03554C4.3663 1.1481 4.51058 1.26344 4.65546 1.43636C4.51545 1.33084 4.37976 1.21979 4.24871 1.10347C4.21379 1.0722 4.17827 1.04072 4.14235 1.00825L4.07774 0.950078L3.95473 0.848088C3.79178 0.70744 3.59352 0.602063 3.38302 0.508031C2.92456 0.328847 2.41883 0.307385 1.94663 0.447072C1.88422 0.465603 1.82181 0.485524 1.75961 0.507435C1.68375 0.540905 1.6071 0.578747 1.53225 0.620388C1.4572 0.662022 1.38335 0.70744 1.31231 0.755452C1.29024 0.77039 1.28382 0.775776 1.2792 0.779561L1.26054 0.794499L1.22301 0.824383L1.14736 0.885136L1.13793 0.89291L1.13312 0.896687L1.04422 0.976773L1.03981 0.981556L1.00469 1.0204L0.935256 1.09989C0.84355 1.20826 0.754054 1.31961 0.688235 1.4515L0.62081 1.5523C0.579474 1.61325 0.529704 1.69673 0.49298 1.78737C0.453246 1.87681 0.417128 1.96944 0.391844 2.03956C0.368365 2.10989 0.35974 2.1587 0.35974 2.1587L0.349905 2.26249C0.346495 2.32863 0.334055 2.42345 0.341479 2.53621C0.350619 2.66482 0.366892 2.79284 0.390238 2.91968C0.428969 3.05953 0.466895 3.19479 0.533316 3.34819C0.596087 3.47722 0.668391 3.60148 0.74964 3.71991L0.78937 3.7761C0.805025 3.79801 0.802813 3.79263 0.810438 3.8022L0.927431 3.93287L1.01452 4.02829L1.02135 4.03447L1.03459 4.04683L1.05907 4.06913L1.0988 4.10579C1.12087 4.12611 1.13372 4.13746 1.13372 4.13746C1.08917 4.10101 1.05265 4.07332 1.02074 4.0506L1.0089 4.04244L1.00328 4.03846L1.00288 4.03806L0.921011 3.94841L0.92021 3.94781L0.919005 3.94661L0.916193 3.94443L0.896124 3.9283L0.859202 3.90001L0.791373 3.85239L0.756663 3.82769C0.741011 3.81375 0.705088 3.76773 0.678198 3.73327C0.620005 3.65696 0.554991 3.56294 0.48596 3.43863L0.43479 3.34062L0.399069 3.25177C0.374987 3.18902 0.350104 3.11869 0.326022 3.04001C0.243948 2.73063 0.156058 2.24734 0.400469 1.61544C0.359534 1.68816 0.262614 1.88459 0.224486 2.17424C0.207228 2.31986 0.18857 2.4864 0.211848 2.66808C0.220221 2.76238 0.233004 2.85624 0.25017 2.94937C0.274451 3.04459 0.303351 3.14261 0.336863 3.24122C0.376395 3.40636 0.590109 3.76593 0.699675 3.89781L0.794588 4.00638L0.908972 4.13308L0.935458 4.15818L0.988436 4.20839C1.12524 4.33735 1.25834 4.47015 1.38756 4.60661L1.72028 4.7835C1.57881 4.72873 2.63894 5.79769 1.82101 5.10244C1.50662 4.82049 1.19218 4.53861 0.877665 4.25679L0.850573 4.23249L0.837328 4.22053L0.83071 4.21456L0.829104 4.21316L0.729166 4.1036L0.72616 4.10041L0.637266 4.00299L0.597933 3.95977C0.596926 3.96096 0.568835 3.92172 0.555792 3.90359L0.508833 3.83606C0.449034 3.74761 0.401076 3.66632 0.363753 3.599C0.288901 3.46234 0.256796 3.38385 0.260207 3.38942C0.255995 3.38324 0.287493 3.47349 0.351107 3.60856C0.387358 3.68518 0.426791 3.76028 0.469305 3.83367L0.578471 4.01216L0.664156 4.15679L0.769305 4.27253L0.770705 4.27433L0.773119 4.27771L0.777933 4.28428L0.786764 4.29623C0.792181 4.3036 0.797194 4.31018 0.801009 4.31576C0.808832 4.32652 0.813654 4.33249 0.813654 4.33249L0.767901 4.28866L0.76248 4.28328L0.651915 4.16237L0.640677 4.14921L0.615389 4.11934C0.597128 4.09802 0.576861 4.07372 0.554385 4.04762L0.537329 4.02729L0.5287 4.01694C0.522559 4.01005 0.516928 4.00273 0.511847 3.99503C0.39266 3.82982 0.289713 3.65364 0.20442 3.46891C0.157462 3.35536 0.127364 3.25515 0.0936493 3.1412L0.0491051 2.97248C0.039473 2.9153 0.0316452 2.85733 0.0246186 2.79936C-0.0496268 2.333 0.0563264 1.86167 0.17974 1.53218C0.250777 1.37042 0.322615 1.23934 0.373984 1.14969C0.423953 1.05865 0.462481 1.01442 0.462481 1.01442C0.462481 1.01442 0.455058 1.02618 0.441611 1.0463C0.427966 1.06622 0.410708 1.0963 0.392245 1.13395C0.354319 1.20846 0.306162 1.30946 0.263621 1.41185C0.22325 1.50424 0.191802 1.60023 0.169703 1.69852L0.1388 1.83199C0.162882 1.74234 0.18957 1.65569 0.218062 1.57261C0.248366 1.49054 0.2885 1.41385 0.325625 1.33894C0.363753 1.26423 0.403285 1.19291 0.443419 1.12499C0.485159 1.05845 0.533316 0.999089 0.578868 0.940121C0.625022 0.881756 0.671576 0.826367 0.717929 0.773777L0.752646 0.734936L0.770106 0.716008L0.774321 0.711224L0.77653 0.708836L0.891913 0.605252L0.89593 0.601864L0.926627 0.576359C0.967364 0.543286 1.00569 0.512211 1.04141 0.482731C1.24469 0.332722 1.55352 0.168972 1.71065 0.126538C1.88262 0.0745435 2.03292 0.0307203 2.16637 0.0185666C2.43426 -0.0105166 2.62228 -0.00314658 2.76918 0.02554C2.91586 0.0518385 3.02181 0.0721556 3.12335 0.114384C3.23667 0.157384 3.34901 0.202878 3.46028 0.250844C3.5877 0.319173 3.75847 0.399457 3.96516 0.551457C4.0198 0.594022 4.0736 0.637662 4.1265 0.682339L4.21379 0.758046L4.25874 0.79868L4.27981 0.819394L4.45701 0.990926C4.63166 1.15513 4.80873 1.31677 4.98817 1.4758C5.61025 1.90769 6.18838 2.4617 7.20056 3.51174C6.43079 2.7892 7.05767 3.50098 6.72175 3.27507C7.44637 4.07212 7.78129 4.25141 8.21413 4.60859C8.35942 4.85083 8.45734 5.02814 7.78229 4.34385C7.59346 4.36178 8.69775 5.21719 8.6534 5.38473C10.9169 7.62546 10.8088 6.84116 13.318 9.59646L13.1759 9.54087C14.9073 11.1533 15.8239 12.1653 17.4114 13.6741L18.5253 14.9971C18.2349 14.7423 17.4176 14.0931 17.7084 14.4863C17.224 13.7857 16.5537 13.1972 15.972 12.502C15.8779 12.4653 16.1181 12.7452 16.2142 12.8757C15.8283 12.4906 15.6836 12.2488 15.1535 11.7603C15.1553 11.8073 15.6854 12.388 15.2518 11.9844L14.6247 11.2266C13.6623 10.3353 14.0038 10.9336 12.9425 9.81798C13.2064 9.95942 13.7091 10.2841 14.1465 10.6895C13.6605 10.1809 14.8487 11.3139 14.4295 10.8256C13.6204 10.2009 13.3444 9.78551 12.3319 8.89224C12.4567 8.99125 12.5038 9.0032 12.7448 9.2313L11.3953 7.8161C11.6859 8.20914 10.1913 6.73558 10.2423 6.94137C11.6885 8.44143 11.3012 7.96312 12.9421 9.67992C12.4475 9.22393 11.7527 8.69243 11.3913 8.47888C11.3797 8.46135 11.3578 8.43465 11.3075 8.38186C10.9727 8.20317 11.2143 8.48426 11.0741 8.61355C11.9396 9.2817 12.3744 9.87077 13.337 10.7164C13.5816 10.8122 12.9052 10.1001 12.435 9.67156L13.2834 10.4162L13.092 10.2939L15.0959 12.3322C14.7074 11.9545 14.534 11.8677 14.301 11.7007C14.5599 11.9633 14.7997 12.2402 15.0537 12.535C15.0664 12.4073 15.1529 12.3942 15.4069 12.6488C16.6952 13.9614 17.3574 14.7447 17.7584 15.3029L17.9153 15.4487C17.769 15.1596 18.9724 16.2396 19.4508 16.5677C19.3559 16.6218 20.0785 17.2798 20.4166 17.6914C20.7028 17.8048 20.5543 17.4219 20.1664 16.8976C19.2052 16.0993 19.5927 16.4854 19.0641 16.182L17.5741 14.8503L17.9592 15.0963C17.2828 14.3648 16.5136 13.7807 16.6547 13.7438C17.0875 14.0554 17.6679 14.7032 18.0979 15.0118L17.663 14.5154C18.5753 15.2471 18.0014 15.0188 19.0609 15.9493C18.7693 15.5094 19.1568 16.0338 19.6352 16.4079C19.3447 16.0146 17.8557 14.6841 18.2845 14.854C18.86 15.3136 19.8804 16.7382 20.6954 17.2928L20.6472 17.2739C21.6439 18.2966 22.0738 18.5771 22.4994 18.9078C22.8889 19.3771 23.5431 19.91 24.015 20.3694L23.9661 20.3953L24.6411 21.0344C24.2588 20.7903 23.8701 20.2654 23.2938 19.7128L23.2946 19.8519C22.7243 19.1215 22.163 18.814 21.5968 18.3707C22.394 19.0425 23.6608 20.4537 23.9701 20.4905L24.3558 21.0129L24.5992 21.2043C24.8861 21.594 24.4565 21.3318 23.782 20.6935C23.6853 20.5624 23.6368 20.4971 23.6859 20.517C23.349 20.2443 23.0143 20.0194 22.2905 19.2688L22.7221 19.6242C21.8059 18.7048 20.9416 17.9 20.5577 17.6548C21.8586 19.0038 23.1602 20.3081 24.4122 21.5446C24.9379 21.7541 25.4631 22.1002 25.797 22.1414C26.6619 22.9464 27.8195 24.0556 28.4936 24.8311L28.3978 24.7935C28.7031 25.1226 29.0251 25.4359 29.3627 25.7322C29.6994 26.1428 29.0285 25.5539 29.2691 25.8342L30.5183 26.9769C30.378 26.9691 29.3681 25.9671 28.8837 25.4955C28.9798 25.5798 29.1734 25.7501 29.1237 25.683C28.5929 25.1023 27.4411 24.1825 27.293 23.8453C27.0046 23.5921 27.9158 24.3232 27.0006 23.4048C26.4204 22.7574 26.1341 22.6436 26.041 22.6081C25.9934 22.6354 26.9566 23.6189 26.5724 23.3273C27.0566 23.7986 27.2958 23.9403 27.8729 24.5849C27.3931 24.1176 26.6715 23.5522 26.4766 23.2432C25.4671 22.3797 25.4259 22.6882 25.8592 23.1378C25.809 22.9783 27.6415 24.7722 26.4811 23.4775C27.1055 23.9566 28.1173 24.9598 28.8857 25.635L28.8387 25.6162L29.7554 26.4912C29.6091 26.3852 29.3205 26.1318 29.2744 26.1601L30.6201 27.2964C29.8517 26.6677 31.0077 27.7741 31.2969 28.1205C31.4877 28.196 32.0159 28.6371 31.5821 28.1412C31.0991 27.5791 31.2455 27.8689 30.7641 27.3996L31.5301 27.9803L31.5793 28.0466L32.0601 28.3767C32.9749 29.2953 31.4859 28.1484 32.7373 29.2471L32.6847 28.9945C34.0348 30.3642 35.6741 32.2171 36.6853 33.1283C36.3618 32.9211 36.1523 32.8964 36.4633 33.314C36.0648 32.8839 35.2256 32.0577 34.6196 31.475C34.5227 31.3436 35.4841 32.0964 36.1104 32.7614C35.9617 32.2856 34.3808 31.2424 34.4719 31.0005C32.8792 29.3032 33.0791 29.9379 31.7759 28.449C31.6818 28.504 31.3411 28.0898 31.2014 28.0823C31.4942 28.6152 33.0789 29.9377 33.9457 30.8832C33.8512 30.8001 33.661 30.6334 33.6116 30.6127C34.2397 31.2798 34.5251 31.5298 35.0069 31.9532L34.9585 31.8876C35.825 32.6028 35.3936 32.4305 35.8278 32.9267C36.0199 33.0954 36.6476 33.7614 36.598 33.6032L37.3728 34.5132L37.4155 34.3899C37.8973 34.8587 37.9465 35.017 38.4299 35.3957L38.5246 35.3415L37.366 34.1397C37.9908 34.7114 37.6047 34.2349 38.2802 34.8744C37.8708 34.5491 37.9908 34.6887 38.2136 34.9274C38.3249 35.0469 38.462 35.1907 38.5714 35.3137C38.626 35.3754 38.6739 35.4316 38.708 35.4766C38.7228 35.496 38.7366 35.5161 38.7494 35.5368C38.7627 35.5532 38.7733 35.5716 38.7809 35.5914C38.8951 35.6933 39.0094 35.7953 39.1168 35.9021L39.3407 36.137L39.4537 36.2559C39.4914 36.2958 39.5155 36.3416 39.5472 36.3846L39.4643 36.274L39.3622 36.173L39.4505 36.2938L39.5133 36.4101C39.5528 36.4842 39.597 36.5474 39.6195 36.6173L39.7001 36.8083C39.723 36.8707 39.7375 36.9342 39.7573 36.9974C39.8027 37.1231 39.8147 37.2609 39.833 37.4251C39.8304 37.5074 39.8256 37.5968 39.8167 37.696C39.8027 37.7942 39.7724 37.8996 39.7447 38.0183L39.83 37.7211C39.8458 37.6219 39.8595 37.5245 39.8715 37.4281C39.8729 37.3319 39.8687 37.2366 39.8647 37.1418C39.8567 37.0476 39.8342 36.9565 39.8191 36.8637C39.7744 36.6824 39.7142 36.5014 39.6122 36.3342C39.5719 36.2458 39.5025 36.1667 39.4357 36.0836L39.2266 35.8286L38.8381 35.4555C38.7506 35.3758 38.6655 35.3017 38.568 35.2188L38.7937 35.4109C38.8226 35.4342 38.9139 35.5196 38.9886 35.5886L39.2384 35.8208C39.4136 36.0205 39.6231 36.2292 39.7509 36.4731C39.8715 36.7217 39.963 36.9898 39.9871 37.2494C40.0481 37.7725 39.8773 38.2012 39.8001 38.3845C39.6915 38.6558 39.4664 38.86 39.285 39.0664C39.107 39.2586 38.8824 39.5039 38.8017 39.5638C38.5778 39.7636 38.3528 39.9545 38.1096 40.1874C38.5531 39.7174 38.4163 39.7407 38.4048 39.6604C38.3992 39.6202 38.4249 39.5541 38.5702 39.3873L38.9858 38.9297L39.3538 38.5351C39.4136 38.457 39.4613 38.3674 39.5209 38.2763C39.5629 38.1767 39.6145 38.0729 39.6504 37.957C39.6546 38.0307 39.5336 38.3261 39.4463 38.4176C39.6221 38.266 39.8296 37.8189 39.7774 37.2956C39.7603 37.035 39.6596 36.7731 39.536 36.5396C39.4029 36.3115 39.1987 36.1256 39.0385 35.9543L38.6733 35.6336C38.7227 35.7316 38.6045 35.6467 38.5878 35.6567C38.5776 35.6597 38.5658 35.6597 38.6089 35.7139C38.6546 35.7706 38.7452 35.8716 38.9055 36.0432L39.1244 36.3161C39.0594 36.2219 39.0849 36.2252 39.1752 36.3039C39.1975 36.3238 39.2254 36.3476 39.2538 36.377L39.3363 36.4846C39.3652 36.5255 39.4017 36.5681 39.4308 36.6193C39.4565 36.6729 39.4844 36.73 39.5135 36.7902C39.6161 37.0354 39.6945 37.3679 39.6357 37.7143C39.5783 38.0604 39.4258 38.399 39.1505 38.6439L39.1601 38.515C39.1668 38.4532 39.1615 38.3909 39.1591 38.3899C39.166 38.3931 39.0803 38.4813 38.9532 38.614L38.4957 39.0909L37.9995 39.5696L38.0856 39.4732C37.6419 39.7632 37.0563 40.5238 36.3381 41.1485C35.8938 41.6731 33.9945 43.4923 34.9204 42.8175C34.2421 43.3447 33.8051 43.9646 33.1611 44.6353L34.0316 43.8666C33.1435 44.9154 33.3692 44.5834 32.7249 45.489C32.6141 45.535 32.4142 45.681 32.5383 45.4906C31.2259 46.7812 29.3271 48.6003 28.6571 49.4567C27.7312 50.3657 27.4481 50.3714 26.2105 51.7081C25.9551 51.9948 26.5326 51.6067 25.6435 52.4223C25.577 52.4707 26.3797 51.5181 25.4366 52.4731C24.8486 53.2363 23.7931 54.0053 22.989 54.9593C22.4905 55.3894 21.6943 56.2043 21.791 55.9661C22.5453 55.2495 23.575 54.1979 23.6998 54.0057C23.6412 54.1497 24.2667 53.526 23.756 54.0991C24.9259 53.0453 24.4358 53.3361 25.4737 52.3793C25.514 52.2823 24.8799 52.8114 24.6909 53.05C24.5885 52.9576 26.6171 51.0438 25.6101 51.8105C24.5321 52.864 24.4186 53.3817 23.3887 54.1997C23.7008 53.7718 24.3323 53.2449 24.7015 52.6743L23.9004 53.3913L23.4182 54.0102L23.4367 53.9632C22.0019 55.2099 22.2931 55.2987 21.1384 56.5422C21.9036 55.9173 21.1469 56.8707 21.7129 56.3912C20.9205 57.2028 20.3165 57.7765 20.2131 57.6849C21.6391 56.1107 20.1951 57.4972 21.4896 56.0185C21.2261 56.2105 21.6778 55.5473 20.8374 56.3601C19.9725 57.3574 21.1984 56.1635 20.2984 57.1209C20.2346 57.1669 20.1686 57.2149 20.1869 57.1685C19.809 57.6446 19.6683 57.6468 19.2056 58.2178L19.3089 58.0761C18.6098 58.6523 18.6764 58.8377 18.061 59.3202C18.3537 59.1736 17.7509 59.7465 17.4547 60.1304C18.0403 59.6035 18.4467 59.4069 19.5423 58.3078C19.6178 58.1188 19.5056 58.167 19.9302 57.6903L19.2212 58.4078C19.3663 58.2453 19.4691 58.1136 19.5993 57.9616L20.3167 57.3086C19.4859 58.2148 19.9471 57.8789 19.6362 58.3058C18.8133 59.073 18.9937 58.975 18.4733 59.4547C18.4396 59.321 16.7911 60.839 15.8183 61.697L16.2479 61.2773C16.862 60.5621 15.7186 61.6633 15.6708 61.6649L15.2267 62.1895C15.3124 62.0928 15.4194 61.9476 15.2 62.1416C14.5573 62.8106 14.6791 62.8556 14.0377 63.5238C13.942 63.5268 14.4273 62.9052 13.9942 63.2867C13.8128 63.3863 13.2563 63.7252 12.4242 64.6328C12.3798 64.7117 12.1635 64.9463 11.9088 65.2145C11.9428 65.1758 11.9869 65.1284 11.9998 65.1089L11.3692 65.6344C11.7842 65.0653 12.4059 64.6794 12.8233 64.1073L12.7902 63.9907C13.1765 63.6066 13.6689 63.0532 13.8712 62.7749C13.2692 63.3473 13.1648 63.4901 12.5213 64.1599C12.3816 64.2043 12.8105 63.7084 12.8723 63.6369L12.8169 63.7772C13.6651 63.0588 13.9198 62.5391 14.9121 61.5817C15.0628 61.438 14.9783 61.5331 14.9596 61.5799C15.6788 60.7213 16.5557 60.0489 17.2296 59.1893L17.0183 59.4778L19.4139 56.747L19.3928 56.7097C19.2616 56.8052 19.6471 56.4245 19.8652 56.2316L19.8646 56.233L21.1818 54.7397C20.9996 54.8775 20.8255 55.0255 20.6604 55.183C20.5342 55.3766 19.565 56.2828 19.7721 56.2322C19.2903 56.6171 18.6572 57.3797 18.3084 57.6674C18.9403 57.1396 17.9769 58.1429 17.9181 58.2867C17.6731 58.4319 17.0596 59.1463 17.0695 59.0049C16.9374 59.1017 17.3992 58.7648 17.6069 58.4797C18.1545 57.8134 16.4367 59.5334 17.1373 58.7214C16.2182 59.726 14.9257 60.9691 13.991 62.0183L14.5757 61.4918C14.1232 61.9217 13.0904 62.9765 12.98 63.0226C13.3013 62.6883 13.6866 62.3074 14.0941 61.8765C14.0398 61.7819 13.0832 62.8809 12.9903 62.8815L11.8918 64.2178L12.4312 63.6905C12.1394 64.0704 10.9653 65.127 10.1253 65.9402C10.4987 65.3661 11.3743 64.6951 12.2058 63.7877C12.801 63.1196 11.7156 64.0782 12.2911 63.4582C12.1115 63.5891 11.7228 63.9806 11.5555 64.1977L11.3004 64.4142C11.7425 63.7903 12.9634 62.6196 13.6822 61.747C13.622 61.8265 13.5714 61.8976 13.5602 61.9303C14.2113 61.3556 14.8346 60.7338 15.4095 60.1141C15.063 60.3999 14.9574 60.5442 14.7868 60.735C14.7413 60.7346 15.2973 60.1627 15.4862 59.9248C14.901 60.4517 15.3273 59.9736 14.959 60.3087C15.3002 59.926 15.601 59.6403 16.0535 59.2104C16.3182 59.0174 15.912 59.4471 16.0049 59.4463C16.4331 58.9662 16.752 58.8688 17.366 58.1534C16.459 59.0154 17.4997 57.8217 17.7744 57.4875L17.6225 57.6319C17.8499 57.299 18.0867 57.0596 18.3305 56.9155C17.9893 57.2982 17.6225 57.6319 17.7808 57.5839C18.0184 57.3432 18.2552 57.1036 18.5105 56.8173L18.303 57.102L19.4841 55.9067C19.6244 55.6711 19.8714 55.2902 19.9651 55.0551C20.295 54.8146 20.6568 54.383 20.9113 54.0967L20.8053 54.2421C21.3728 53.761 22.5086 52.5648 22.5644 52.4241C22.9786 52.089 20.181 55.3326 22.7978 52.6558C23.8071 51.653 23.29 51.8954 23.819 51.2763C23.819 51.2763 23.8005 51.3225 23.8667 51.2747C24.3186 50.8458 24.3108 50.7499 24.6522 50.3675C24.3664 50.6099 23.9813 50.9902 23.8776 51.1326C23.9532 50.9438 24.8031 50.2238 25.0966 49.8429C24.7455 50.3669 25.9846 49.0282 25.6888 49.4118C26.6247 48.5957 27.4946 47.5934 27.8912 47.0705C28.5983 46.5884 28.9224 46.0175 29.9416 45.1075C29.7895 45.2519 29.536 45.5364 29.3161 45.731C28.8345 46.3486 30.356 44.772 29.571 45.6788C29.7415 45.4876 29.5465 45.629 29.3713 45.8248C29.0534 46.1561 28.7775 46.4914 28.8913 46.4418L29.7423 45.7203L29.4839 46.0105L30.7671 44.9073C30.7856 44.8611 30.6556 44.9549 30.5893 45.0035C32.0157 43.6626 33.5554 42.0388 34.7835 40.8424C34.7986 40.6306 35.526 39.8662 36.3574 39.0178L36.9909 38.3729L37.3045 38.0524L37.4229 37.9293L37.4902 37.8558C37.5779 37.7608 37.6611 37.6697 37.6782 37.5625C37.6999 37.4588 37.6728 37.3613 37.625 37.2978C37.6948 37.3635 37.7569 37.4321 37.813 37.4697C37.8706 37.5076 37.9282 37.5133 37.9688 37.4468C37.9744 37.5355 37.9772 37.6837 37.8867 37.8301C37.8427 37.9032 37.7797 37.9753 37.7125 38.055C37.6776 38.095 37.6433 38.1327 37.6013 38.1753C37.5417 38.2359 37.4797 38.296 37.4155 38.3558C37.3041 38.403 36.6542 38.9767 37.013 38.5482C35.6617 39.9346 37.2859 38.45 36.9542 38.9258L37.331 38.5375L37.6668 38.1825C37.8092 38.014 37.9643 37.8803 38.0322 37.7072C38.0632 37.6254 38.0763 37.5381 38.0707 37.4509C38.0651 37.3637 38.0409 37.2787 37.9997 37.2016C37.924 37.051 37.7823 36.9605 37.6692 36.8701L37.5215 36.7559L37.2895 36.5557L36.8294 36.1493L36.8286 36.1019L36.0588 35.4256C36.6385 36.0274 36.4969 36.1099 35.772 35.3121L35.8706 35.3989C35.4819 34.9194 34.5195 34.0744 33.846 33.3911L33.3193 32.9972C32.6448 32.3127 32.7363 32.1635 32.5872 31.8717C31.5269 30.8023 30.8105 30.2879 29.9924 29.5929C29.702 29.1997 28.1135 27.598 29.0257 28.3765C28.0152 27.4657 27.9269 27.9396 26.4301 26.1424L26.9101 26.5179C25.3186 24.959 22.9627 22.8213 22.2879 22.045C23.054 22.4424 20.4993 19.8999 20.3976 19.4429C20.4349 19.5614 19.8273 18.9851 19.7189 18.9209C19.6099 18.7709 19.4135 18.5355 19.1466 18.344C19.7271 18.9919 18.5271 18.0986 19.7781 19.1968C19.0587 18.7267 18.1942 18.0592 16.8937 16.7559L16.9882 16.7011L17.9994 17.7502C17.95 17.5918 18.478 18.1241 18.7218 18.3153C16.8405 16.3645 19.1486 18.3914 17.1728 16.4493C16.9344 16.3091 17.0775 16.4115 16.5473 15.923C16.7901 16.1591 16.8848 16.1509 16.4986 15.7654L16.0669 15.4555C15.505 14.65 17.2846 16.5031 16.7863 15.8346C17.6042 16.5298 18.9505 17.804 18.801 17.4659C17.596 16.2007 17.5069 16.5362 16.2539 15.2063L16.1566 15.0287C15.673 14.6036 15.5335 14.5959 15.2442 14.3875C15.2448 14.3421 15.1462 14.2098 14.8599 13.9126C13.9938 13.2438 13.464 12.7552 12.6489 12.1543C14.6179 13.9526 14.1917 13.8311 16.213 15.6983C15.8761 15.4256 14.48 14.0845 14.2922 14.1034L14.3855 14.047C13.7123 13.456 13.0396 12.8647 12.2675 12.0495L12.796 12.4904C11.6881 11.4939 11.1541 10.6351 10.1965 9.93152C10.4841 10.2301 10.7253 10.4652 10.9183 10.6341C10.3414 10.1278 9.66698 9.44306 9.08885 8.84424L7.74316 7.75355C7.79092 7.72725 7.01874 6.95611 7.45159 7.26827C6.62844 6.33796 6.10209 6.03695 5.57513 5.55066C4.75339 4.57692 6.39105 6.29034 6.58269 6.2754C5.37587 5.00861 4.02857 3.73307 3.26061 3.10455C3.49881 3.3709 3.60877 3.50596 3.57787 3.51114C3.56382 3.45038 3.05733 2.95973 2.77941 2.68222L2.53901 2.54039L2.52897 2.52884L2.52656 2.52585L2.55225 2.50035L2.55265 2.50035L2.55406 2.49935L2.55827 2.49537C2.56215 2.49117 2.56565 2.48663 2.56871 2.48182C2.56911 2.48082 2.5669 2.48581 2.56851 2.48301C2.57272 2.47464 2.5669 2.488 2.56991 2.48043C2.57291 2.46987 2.57796 2.45999 2.58476 2.45134C2.58697 2.44935 2.5966 2.4362 2.60021 2.43719C2.60324 2.43721 2.60625 2.4366 2.60904 2.4354L2.61606 2.43261C2.62188 2.4356 2.61466 2.42126 2.63332 2.43839C2.62429 2.42883 2.62188 2.42724 2.62208 2.42862L2.61907 2.42823L2.61446 2.42624C2.61085 2.42604 2.61285 2.41668 2.60744 2.41986C2.5972 2.42703 2.5976 2.41349 2.58757 2.42464C2.57633 2.42026 2.56368 2.44954 2.55947 2.44954C2.55927 2.45552 2.55928 2.45891 2.55827 2.45931C2.56068 2.45931 2.55025 2.45891 2.56248 2.45752C2.58373 2.4541 2.60329 2.44397 2.61827 2.42862L2.62911 2.41608C2.63031 2.41388 2.64134 2.40054 2.6279 2.41269L2.52837 2.49357L2.47801 2.53282L2.4776 2.53302L2.55065 2.46747L2.55084 2.46768L2.55105 2.46807L2.55125 2.46847L2.55145 2.46947L2.55145 2.47046C2.55065 2.47126 2.54743 2.46987 2.54121 2.46747C2.54101 2.46946 2.52597 2.46329 2.51433 2.46389C2.5063 2.45672 2.51492 2.45691 2.5067 2.44735C2.50369 2.43998 2.51251 2.43938 2.5083 2.42783L2.5079 2.42584L2.5077 2.42485L2.5075 2.42444C2.477 2.45214 2.57613 2.36289 2.43867 2.4862L2.43947 2.4856L2.44188 2.48341L2.46195 2.46588L2.50168 2.43082L2.58235 2.3609L2.59138 2.35312L2.58877 2.35791L2.58255 2.36687C2.57628 2.37467 2.56851 2.38115 2.55969 2.38594C2.55087 2.39073 2.54118 2.39373 2.53118 2.39476C2.54367 2.38866 2.55747 2.38567 2.57138 2.38605C2.5853 2.38643 2.59892 2.39017 2.61105 2.39695C2.61687 2.39895 2.6249 2.39855 2.6267 2.40791C2.62789 2.40923 2.62934 2.41031 2.63096 2.41106C2.63258 2.41182 2.63434 2.41223 2.63613 2.41229C2.63473 2.40811 2.64696 2.42046 2.659 2.43261L2.69252 2.46608L2.94616 2.71708C3.10549 2.87247 3.24336 3.00255 3.35152 3.0916C3.13134 2.88606 2.91544 2.67605 2.70396 2.4617L2.65018 2.40672C2.64255 2.40094 2.64255 2.40353 2.63934 2.40074C2.63433 2.39815 2.63392 2.38899 2.63011 2.3846C2.62449 2.38381 2.62068 2.38062 2.61767 2.37464C2.61626 2.36508 2.60884 2.36827 2.60483 2.36448C2.59981 2.36289 2.597 2.35173 2.59098 2.35113C2.57954 2.35352 2.56871 2.33201 2.55586 2.33619C2.5484 2.33401 2.54139 2.3305 2.53519 2.32583C2.5288 2.32781 2.52196 2.32788 2.51553 2.32604C2.48382 2.32245 2.52637 2.31488 2.52637 2.28739L2.52757 2.27723C2.52817 2.27305 2.51352 2.28599 2.5071 2.28958L2.45714 2.32425L2.40677 2.3591L2.38128 2.37684L2.36864 2.3858L2.36222 2.39018L2.36061 2.39138L2.42001 2.33799L2.41981 2.33819L2.41921 2.33899C2.41336 2.34607 2.40612 2.35189 2.39794 2.35611C2.3871 2.35991 2.37767 2.36528 2.37486 2.37464C2.33713 2.39815 2.32851 2.44755 2.32028 2.50054C2.31346 2.52445 2.32951 2.56549 2.3279 2.57664C2.3275 2.57246 2.32469 2.56887 2.32007 2.56688C2.31729 2.56566 2.31429 2.56499 2.31124 2.56489L2.30583 2.56489C2.30342 2.56469 2.31385 2.57564 2.31747 2.58043L2.38008 2.65673L2.41218 2.69557L2.42824 2.71549L2.43245 2.72027L2.38349 2.66629L2.38469 2.66748L2.3869 2.66987L2.39613 2.67884C2.61932 2.89854 2.84557 3.11517 3.0748 3.32866C3.0762 3.37628 2.69091 3.08363 3.0772 3.46831C3.99165 4.34046 3.41152 3.60138 3.74563 3.8257C3.38543 3.49799 3.13238 3.24739 2.9271 3.02108C2.82456 2.90793 2.73386 2.80095 2.64737 2.69338L2.52035 2.53142L2.52014 2.53103C2.46376 2.46887 2.597 2.61528 2.58295 2.60015L2.58255 2.59935L2.58175 2.59796L2.57994 2.59517L2.57653 2.58979L2.56971 2.57864L2.55626 2.55672L2.52937 2.5121C2.51352 2.48421 2.48844 2.44775 2.47981 2.42584C2.47018 2.41687 2.52917 2.46468 2.57894 2.50412L2.61707 2.53421L2.63472 2.54815L2.63894 2.55154L2.63994 2.55233L2.64055 2.55274L2.64074 2.55294L2.64094 2.55314L2.57272 2.47823L2.57492 2.47963L2.58316 2.48481L2.61807 2.50711C2.6255 2.55513 3.05773 2.98662 3.16569 3.13304L3.35773 3.16391C3.21726 3.20137 3.84275 3.95678 4.42108 4.46477C3.93486 3.85399 4.08035 4.00499 4.03198 3.75557C4.89446 4.42094 4.80236 4.70761 5.76296 5.45943C5.67005 5.42377 4.89868 4.70044 5.52476 5.36561C6.05714 5.90188 6.05513 5.76204 6.437 6.09731C5.95761 5.76881 6.00657 5.92678 5.47961 5.57816C4.5172 4.64147 5.09613 5.19547 4.13232 4.30301L4.85794 5.14786C4.03861 4.35839 4.1859 4.64924 4.09118 4.61158C5.39453 6.05527 5.24282 5.53135 6.11052 6.43139C6.58911 6.8055 5.29018 5.59589 6.01259 6.20707C6.83132 7.04137 6.25019 6.34692 7.2134 7.23938L7.02356 7.11847C7.26416 7.44497 7.59988 7.67048 7.9368 7.98981C8.32149 8.32708 7.7843 7.32684 9.27868 8.8004C9.18517 8.74841 9.14523 8.73486 9.13661 8.74343L7.06068 7.91949C8.72708 9.57173 10.3732 11.244 11.9986 12.936C12.2883 13.4653 10.6509 11.7973 10.7028 11.9581L9.93065 11.1419C10.027 11.1352 11.6165 12.784 10.9882 11.9788C9.54357 10.6184 8.96424 9.92535 7.52243 8.70538C7.81521 9.23847 9.30276 10.4298 10.0769 11.3858C9.72015 11.0158 9.39888 10.7234 9.08243 10.4439L11.6476 13.0922L11.8858 13.2701C11.2739 12.6354 10.8517 12.1956 10.8004 12.136C11.6189 12.9699 12.3858 13.597 12.5303 13.5631L12.386 13.4137L12.7137 13.6835C12.9009 13.8825 13.0886 14.081 13.277 14.2789ZM5.86549 67.8728C5.90743 67.8142 5.93713 67.7648 5.95399 67.7233C5.93653 67.7666 5.97887 67.7411 5.86549 67.8728ZM6.16871 4.3044L4.53526 2.63322L3.72837 1.80649L3.5283 1.6023C3.50061 1.57103 3.44944 1.528 3.40188 1.48875C3.35272 1.4513 3.30938 1.40528 3.25379 1.37699C3.04269 1.24212 2.79426 1.18197 2.54844 1.17579C2.76977 1.1969 2.98348 1.25308 3.15546 1.36922C3.24657 1.41822 3.32001 1.48735 3.38965 1.55608C3.46871 1.627 3.49941 1.6796 3.55319 1.73976L4.07914 2.37883C4.38797 2.75932 4.60329 3.03882 4.66409 3.15396C4.7251 3.2689 4.63159 3.2197 4.32296 2.94259C4.16864 2.80414 3.96055 2.60872 3.69125 2.34855C3.5572 2.21787 3.4073 2.07145 3.24014 1.90889C3.1982 1.86406 3.15667 1.83398 3.11453 1.79992L3.05071 1.74833L2.97566 1.71007L2.89941 1.66983L2.81452 1.64533C2.78562 1.63755 2.75733 1.6266 2.72743 1.62063L2.63513 1.61226C2.63412 1.59971 2.37626 1.63597 2.37947 1.64493C2.50549 1.63079 2.65961 1.62342 2.81452 1.68238C2.89519 1.70051 2.96703 1.75151 3.04288 1.79474L3.14683 1.8814C3.18315 1.91168 3.22349 1.9569 3.26242 1.99455C3.59636 2.32956 3.93444 2.66048 4.2766 2.98722C4.78564 3.38557 5.29776 3.78002 5.81293 4.17054L6.56844 4.73809C6.7659 4.88351 6.89112 4.97196 6.89132 4.9622C6.74624 4.71996 6.40871 4.49205 6.07018 4.1261L6.16871 4.3044ZM6.65955 5.37835C7.26657 6.02021 7.16323 5.83953 7.29547 5.90128L6.62343 5.26062C6.69788 5.35206 6.72677 5.40545 6.65955 5.37835ZM7.29306 5.82917C7.22343 5.75845 7.16504 5.69709 7.13835 5.66103L7.29306 5.82917ZM7.76002 9.07671L7.6936 9.01496L8.13667 9.47095C8.08229 9.40581 7.97213 9.28788 7.76002 9.07671ZM6.57406 7.72805L6.36075 7.64418L6.77633 8.07169C6.75807 7.99539 6.7338 7.92089 6.57406 7.72805ZM2.69653 3.45796C2.61285 3.41314 2.49566 3.32628 2.36523 3.22149L2.16135 3.05415L2.10897 3.01033L2.08269 2.98841L2.06964 2.97725L2.06924 2.97686C2.07807 2.98682 2.04857 2.95455 2.08911 2.99877L2.0883 2.99797L2.0869 2.99638L2.08389 2.99319L2.07787 2.98722L1.98275 2.8896C1.94322 2.85334 1.9372 2.83403 1.92335 2.8135C1.91031 2.79199 1.89225 2.77546 1.8782 2.75135C1.85834 2.69597 1.82181 2.64717 1.81078 2.59836C1.79774 2.55035 1.77927 2.50851 1.76623 2.47584C1.7578 2.44317 1.74596 2.42006 1.73091 2.4109C1.71847 2.37684 1.70182 2.4125 1.68817 2.49099L1.69158 2.63601C1.6984 2.69099 1.71867 2.74996 1.73232 2.81291C1.74616 2.84418 1.76322 2.87307 1.77807 2.90395C1.79452 2.93443 1.80335 2.9659 1.83406 2.99817L1.91272 3.09559L1.93258 3.12009C1.93764 3.12516 1.94266 3.13028 1.94763 3.13543L1.99259 3.18085L2.36383 3.55736C2.3857 3.55338 2.44911 3.59222 2.54603 3.66533C2.30302 3.40197 2.15533 3.21133 2.31325 3.25914C2.84724 4.0269 2.98409 3.75597 3.65994 4.48787C3.9477 4.64884 2.93593 3.64541 2.69653 3.45796ZM23.1812 53.1923C23.1536 53.2044 23.0643 53.253 22.9426 53.3246L23.3964 52.7865C24.3036 51.9243 25.1432 51.3456 25.8321 50.4426C26.2338 50.0987 26.4927 49.9581 26.7323 49.816C26.5457 49.9943 26.3697 50.1597 26.2196 50.2939C24.1404 52.6789 24.8809 51.2848 23.1812 53.1923ZM33.547 43.2138C33.4609 43.3102 33.4427 43.3572 33.4427 43.3572C35.2627 41.225 36.8488 39.5563 37.9246 38.5008C37.6523 38.6421 36.6425 39.5447 36.1601 39.9702L36.4898 39.4959L36.8001 39.3035L37.4338 38.5409C37.188 38.6861 36.6323 39.2582 36.2157 39.5959C36.1971 39.6425 35.0717 40.931 34.7787 41.3125L35.7979 40.4023C35.5158 40.6414 34.2488 41.933 33.7585 42.4574C33.7856 42.5042 34.7203 41.6898 34.7502 41.5002C34.9096 41.4512 33.8986 42.456 34.5973 41.8795C33.898 42.6904 32.6428 43.8391 32.0558 44.3676L31.8686 44.37C31.2186 44.9437 31.5652 44.8925 30.7822 45.5635C31.6609 44.6553 30.5291 45.6133 31.2355 44.8983C30.9728 45.0897 31.1332 44.8059 30.4252 45.5222C29.9526 46.2346 29.595 46.194 29.1405 46.8597C28.7265 47.1948 29.4712 46.385 28.7153 47.103C27.9315 48.0088 28.0266 48.006 28.0631 48.1468C28.8813 47.3843 28.8383 47.147 29.5087 46.5247L28.3712 47.957C28.6304 47.7424 28.8088 47.5699 28.9503 47.4173C28.6998 47.6835 28.5022 47.9245 28.3449 48.1427L28.0922 48.4833C28.8243 47.7582 29.4758 47.1155 29.6285 47.0392L29.571 47.1823C29.8695 46.9645 30.2605 46.5147 30.4234 46.2902C31.0734 45.6354 31.6671 44.9264 31.8662 44.8399L31.6571 45.126C32.4506 44.3142 32.5348 44.2198 33.547 43.2138ZM18.4146 16.4037C18.7438 17.0452 19.1418 17.7181 21.4459 19.9505L21.2558 19.7835C22.3035 21.0212 23.6241 21.8735 24.9094 23.3687C24.1724 22.7556 24.2143 22.7864 23.3299 22.1796L24.1013 22.8566C23.8138 22.7422 24.5831 23.4175 25.1123 23.9508L24.5392 23.5855C24.2486 23.2386 23.4297 22.4043 23.4307 22.4518C23.6237 22.6209 22.4649 21.2358 21.7414 20.5768C21.7435 20.7168 23.2362 22.1428 22.4687 21.6063C23.0927 22.1314 23.095 22.2713 23.7219 22.8452C23.0964 22.3187 23.4841 22.7974 23.0031 22.4205L24.0148 23.3779C24.0174 23.4265 22.5245 22.0006 23.2487 22.889C23.6809 23.2458 24.6923 24.3407 24.786 24.2851L24.7874 24.3321C25.5116 25.0833 25.219 24.5505 26.0857 25.4955C26.1341 25.4688 25.9866 25.2708 25.6531 24.9551C25.3611 24.6983 25.2674 24.7074 24.6899 24.1548C24.494 23.8443 25.3667 24.8411 25.072 24.3518C24.9257 24.1088 23.5322 22.9078 24.0582 23.2092L24.7812 23.959C24.8751 23.9034 25.4061 24.4391 25.4516 24.3642C25.9312 24.7855 26.2734 25.2927 26.8003 25.6866C27.0403 25.8288 26.7957 25.4071 27.5203 26.2043C28.0061 26.9067 29.7865 28.6313 30.4609 29.2696L31.0852 29.7943C31.0822 29.6999 29.9775 28.7072 30.4075 29.0154L31.3244 29.8899L31.2263 29.8497C31.5178 30.1519 31.8534 30.4234 32.1417 30.6768C31.8078 30.4525 31.1815 29.7877 31.2323 29.9929C31.6389 30.4272 31.6742 30.5198 32.0775 30.8904C31.9872 30.8117 31.9065 30.7469 31.9063 30.7684C32.7269 31.6502 32.8186 31.5009 33.0582 31.6882C34.0188 32.44 32.2866 30.7354 32.4768 30.7645L35.0276 33.2114C34.788 33.0239 34.5472 32.8347 34.5959 32.9468C35.175 33.5933 34.5494 33.0207 35.4166 33.8744C35.4618 33.7074 36.5705 34.8879 37.2423 35.4322C37.4837 35.7587 37.5335 35.8256 36.9088 35.2081C36.9078 35.3445 37.7817 36.1593 38.0585 36.4464C38.0948 36.4756 38.1304 36.5058 38.1652 36.5368C38.2469 36.6093 38.3548 36.6924 38.447 36.7912C38.4931 36.8406 38.5423 36.8884 38.572 36.9456C38.6059 37 38.6428 37.0504 38.6591 37.1026C38.6282 36.9376 38.6149 36.8882 38.6876 36.9597C38.7032 36.9787 38.7289 37.0034 38.7482 37.0408C38.7662 37.0787 38.7869 37.1259 38.8104 37.1827C38.8346 37.2392 38.8389 37.3102 38.8549 37.389C38.8617 37.4788 38.8582 37.569 38.8445 37.658L38.8517 37.7058C38.9119 37.4986 38.9211 37.25 38.8367 37.0141C38.7576 36.7733 38.5678 36.5862 38.3884 36.3878L37.8417 35.8141L37.3387 35.2987C37.0168 34.976 36.729 34.7047 36.5179 34.5425L36.7094 34.6642C35.7439 33.5871 34.3539 32.5729 34.012 31.9737C34.1075 31.9655 33.8179 31.7573 33.9106 31.701L33.0973 31.0095L33.2882 31.1316L31.9872 29.8736L32.0352 29.8935L30.3965 28.6008C30.3624 28.6319 30.3921 28.6811 30.1645 28.5032C29.9851 28.3531 29.8144 28.1931 29.6532 28.0239C29.652 28.0231 29.652 28.0231 29.6518 28.0233L29.6522 28.0229C29.3468 27.7008 29.1837 27.4458 28.8148 27.0416L30.0168 28.2189C30.1696 28.2604 30.1256 28.1026 29.5792 27.4832C29.8206 27.7189 29.9639 27.7753 29.6741 27.4749C29.6271 27.457 28.8564 26.7332 29.0978 27.0609C27.9433 25.9549 26.2525 23.9875 24.425 22.3824C25.7255 23.548 23.5077 21.3242 24.904 22.6653C24.0339 21.6254 23.9917 21.933 23.0281 20.9491C22.9768 20.8348 23.5561 21.4816 23.8435 21.6422C22.2542 19.9939 20.9586 19.0626 19.4135 17.4753L19.4155 17.3398C19.1085 17.0531 18.7683 16.7346 18.4146 16.4037ZM15.2187 13.4022L14.2737 12.5113L14.362 12.6032L13.3972 11.7561C13.9288 12.3374 14.2208 12.7781 13.4036 12.0372C13.4982 12.0742 13.3045 11.8125 13.5931 12.0659C13.1107 11.5047 12.0016 10.3238 12.1968 10.725C13.3021 11.6262 12.2984 11.0899 13.1626 11.8025C12.67 11.4487 12.2803 11.0007 11.8491 10.633C12.3232 10.9907 11.8808 10.4082 11.2812 9.75901C10.9916 9.50482 10.269 8.75578 9.78818 8.33306C9.88591 8.55697 9.45467 8.20138 10.1773 8.95081C9.76666 8.59105 9.3799 8.20529 9.01942 7.79598C9.21668 7.97009 9.55039 8.28564 9.55099 8.24022C9.30637 7.88084 8.94878 7.53084 8.77781 7.3115L8.30022 6.85769C8.34035 6.90889 8.37266 6.95531 8.39192 6.99256L7.81641 6.53298C8.53802 7.18978 8.10637 6.87961 8.06022 6.9079C8.15353 6.85212 7.62457 6.45628 7.38557 6.22381L7.82082 6.81267C7.53246 6.6053 7.00029 5.88475 7.05186 6.09133C8.11139 7.20572 8.54443 7.60853 9.5546 8.56474L9.21567 8.10615C10.3723 9.16815 9.79681 8.89224 11.049 10.1291C11.6243 10.5891 12.9313 11.9902 13.0693 11.9043C12.8785 11.7828 13.7472 12.7755 14.226 13.15C14.8017 13.5177 16.2463 14.9242 15.8598 14.4476C15.4745 14.0626 14.8978 13.6022 14.654 13.2273L15.4252 13.9504L14.9891 13.4066C15.2233 13.6787 15.2534 13.6 15.2187 13.4022ZM3.84276 6.64473L3.87025 6.67482L3.83854 6.64255L3.84276 6.64473Z" fill="#202020"/>
<path d="M12.7698 64.1358C12.5822 64.3736 12.0516 64.8956 12.2091 64.8467C12.1364 64.7998 13.1403 63.8979 12.7698 64.1358ZM12.0819 64.7066C12.0591 64.7579 12.1076 64.7549 11.8734 64.993L12.5087 64.3281L12.0819 64.7066ZM11.0139 64.9582C10.7228 65.3377 10.5356 65.5753 10.005 66.0971C9.66159 66.1492 10.8263 65.1954 10.9289 64.8212C9.95028 65.7717 9.78127 66.1947 9 67.0001C9.45394 66.6679 11.0955 65.0978 11.0139 64.9582ZM11.2586 64.3461L10.7547 64.915L10.8162 64.8707L11.3204 64.3013L11.2586 64.3461ZM24.147 53.9968C24.2409 53.994 24.5306 53.6151 24.6988 53.4249C24.55 53.5678 24.3339 53.7596 24.147 53.9968ZM17.5258 54.546L13.476 58.68L17.5258 54.546ZM37.4337 40.1271C36.3774 41.2682 35.9677 41.8343 34.8676 42.9733C36.4321 41.5934 36.6695 40.8867 38 39.7452L37.4337 40.1271ZM37.4091 40.877C37.1413 40.9734 38.1567 39.9293 37.9344 40.0259C37.2146 40.7869 37.6711 40.4521 36.9915 41.1165L37.4091 40.877ZM31.0112 44.438L31.2999 44.0603L31.0479 44.3448L31.0112 44.438ZM37.5043 33.9282L37.6451 34.0304L37.1211 33.4525L37.5043 33.9282ZM37.7862 34.1321L37.6451 34.0304L37.7862 34.1321ZM31.2555 43.8263L30.7417 44.303L30.5363 44.5871L31.2555 43.8263ZM36.0878 39.9172L35.6721 40.3874C35.7547 40.2943 36.3961 39.7238 36.0878 39.9172ZM34.1747 30.5289L33.6027 30.0231L33.6492 30.0864L34.2195 30.5907L34.1747 30.5289ZM37.7892 36.8132C37.8171 36.8855 37.7672 36.8542 37.7044 36.8008L37.6077 36.7137L37.4773 36.5919C37.4403 36.5591 37.4224 36.5466 37.4371 36.5713C37.4521 36.5941 37.4683 36.6161 37.4856 36.6372C37.5066 36.6656 37.5601 36.7271 37.5704 36.7469L37.6628 36.8291C37.8395 36.9776 37.7947 36.8736 37.7892 36.8132ZM31.8656 30.0019C31.7929 29.9292 31.714 29.855 31.6328 29.7885L31.8656 30.0019ZM31.8656 30.0019C32.1004 30.2365 32.31 30.4962 32.4901 30.6382C32.2272 30.3157 32.1093 30.2205 31.8656 30.0019ZM29.16 27.3293L29.3682 27.5469C29.1182 27.362 29.2262 27.4602 29.4465 27.628C29.6743 27.8514 29.6825 27.8177 29.7235 27.8302L29.8879 27.9432L29.6791 27.7823C29.3302 27.4325 29.1136 27.2224 29.16 27.3293ZM20.2772 16.2347C21.039 17.045 21.2306 17.26 21.1365 17.2685C21.8666 18.0307 21.8389 17.8268 22.3095 18.2562C21.4551 17.4223 21.3061 17.2261 20.2772 16.2347ZM22.3097 18.2562L22.6085 18.5466C22.5117 18.447 22.412 18.3501 22.3097 18.2562ZM31.7451 31.0296L31.178 30.6196L31.3682 30.7878L31.7451 31.0296ZM19.1359 15.0431C19.2785 15.1922 19.5145 15.4234 19.6118 15.5557C19.7051 15.5463 18.9936 14.8946 19.1359 15.0431ZM21.1656 19.0754C21.2142 19.1864 21.7359 19.6703 21.9289 19.887C21.6415 19.5869 21.4965 19.2535 21.1656 19.0754ZM16.669 13.0001C16.8115 13.1491 17.0013 13.4075 16.8618 13.3528C17.0988 13.5393 17.4758 13.7355 16.669 13.0001ZM19.7378 17.6302L19.8327 17.7598L20.4036 18.2647L19.7378 17.6302ZM20.9017 20.3028C21.5678 20.8464 20.0889 19.1963 21.1829 20.1862C19.9023 18.779 21.1995 20.3756 20.2175 19.3745C20.7779 19.9757 20.9853 20.3372 20.9017 20.3028Z" fill="#202020"/>
<path d="M20.0833 18.9613C20 18.8736 19.9082 18.7798 19.8066 18.6799L20.0833 18.9613ZM11.7469 10.0163C11.8215 10.0798 11.8981 10.141 11.9766 10.1999C11.9004 10.1356 11.8263 10.0755 11.7469 10.0163ZM16.7841 15.8298L17.8081 16.6489C17.1244 16.1015 15.5653 14.5664 15.5693 14.7537C16.0563 15.268 16.6901 15.8405 16.9805 16.046L16.7841 15.8298ZM7.80618 3.70743L8.24496 4.06494L7.75418 3.56271C7.88398 3.71718 7.5553 3.52967 7.80618 3.70743ZM7.65911 3.46558L7.75418 3.56252C7.73508 3.53923 7.70522 3.50837 7.65911 3.46558ZM13.5512 11.6956C13.8449 11.9966 14.0878 12.2296 14.3785 12.4816C14.2827 12.3531 13.5505 11.6032 13.5512 11.6956ZM4.84055 1.06834L5.51985 1.70253L4.78936 1.00006L4.84055 1.06834ZM1 4.02652L1.0969 4.1559L1.68032 4.6619L1.58159 4.53072L1 4.02652ZM4.11149 3.6501C4.55108 4.10037 4.98641 4.36212 4.88626 4.22935L4.01073 3.37899C4.15882 3.66802 4.2547 3.61387 4.74162 4.12724L4.11149 3.6501ZM24.1067 26.3997C23.8627 26.257 22.9378 25.2947 22.9344 25.2002C23.0828 25.3057 23.6191 25.7934 23.324 25.446L22.4491 24.825C21.5207 23.768 23.3703 25.4172 23.9084 25.8608C22.9016 24.8441 22.5195 24.6247 21.4325 23.5588C21.6575 23.7933 21.8667 24.0419 22.0586 24.303C22.0107 24.4225 21.035 23.3927 20.3041 22.6897C20.7283 23.1776 20.4305 22.9467 20.0612 22.6503C19.998 22.5935 19.9531 22.5589 19.9188 22.5366L19.7928 22.4365L19.8798 22.5215C19.8641 22.5249 19.8716 22.5549 19.9185 22.6317C20.5511 23.203 20.9448 23.7282 21.3352 24.1125C21.0866 23.5984 22.6995 25.3869 23.2342 25.8274L23.8158 26.3706L24.0285 26.5786C24.0561 26.6354 23.9767 26.5948 23.6252 26.304C23.9228 26.5422 24.815 27.4354 24.7762 27.3102L26.8362 29.3248C26.8908 29.3868 26.9418 29.4517 26.9892 29.5191C27.0692 29.5806 27.0883 29.5852 27.0859 29.5691C29.6073 32.0344 32.1286 34.4995 34.6443 36.9646L34.6146 37.0001C34.6323 36.9887 34.6532 36.9772 34.6768 36.9646C34.6707 36.931 34.6628 36.885 34.6256 36.8271C34.7396 36.8488 34.7201 36.8217 34.6721 36.768L34.6551 36.7485C34.6469 36.7395 34.6539 36.7451 34.6124 36.7031C34.5519 36.6408 34.4952 36.5814 34.4509 36.5315C34.3621 36.4316 34.3217 36.3697 34.3936 36.3975C34.4783 36.4652 34.5695 36.544 34.6624 36.6288C34.7239 36.686 34.7176 36.6778 34.7339 36.6925L34.7698 36.727C34.816 36.7743 34.8511 36.8239 34.8659 36.8591C34.9137 36.8633 34.9309 36.8394 34.9411 36.8068C34.9521 36.7751 34.9557 36.7341 35 36.7262C34.9619 36.6762 34.92 36.6291 34.8747 36.5852C34.8633 36.5749 34.7101 36.4318 34.6187 36.3533C34.4148 36.1758 34.2325 36.0364 34.0503 35.8987C33.6861 35.623 33.3221 35.3535 32.7852 34.7961C32.8815 34.7875 33.2691 35.0776 32.5384 34.3755L32.7336 34.5447C31.5162 33.4668 31.9495 33.5438 31.0762 32.97L31.171 32.9146C30.5882 32.4554 29.5652 31.4537 28.9786 30.8994L29.0275 30.9187C27.3242 29.4196 28.1016 30.0474 26.25 28.3041L27.1739 29.0362C26.5842 28.3869 26.3469 28.3427 25.9071 27.8924C25.9538 27.9097 25.9051 27.7533 26.3434 28.1558L24.0059 26.1292C23.4233 25.6696 24.0571 26.2878 24.1067 26.3997ZM21.4327 23.5588C21.3023 23.4218 21.168 23.2884 21.0301 23.1587L21.4327 23.5588Z" fill="#202020"/>
<path d="M33.9362 38.0001L34 37.9352C33.9734 37.9509 33.9514 37.9733 33.9362 38.0001ZM17.4379 21.2681C17.782 21.688 17.096 21.0373 17 21.0001L18.3741 22.3634C18.3972 22.3281 18.5659 22.4307 18.5651 22.3766L17.4379 21.2681Z" fill="#202020"/>
<path d="M19.3335 21.7015C19.3984 21.7275 19.5564 21.854 19.7308 21.999L19.0025 21.2505C18.9858 21.2771 19.0479 21.3811 19.3335 21.7015ZM20.705 20.0001L20.9427 20.2397L21.3203 20.5833L20.705 20.0001ZM24.2582 23.9145C24.0203 23.581 23.4548 23.0661 23.2656 22.8939C23.8813 23.5248 23.5988 23.2675 24.2582 23.9145ZM23.9598 22.6593L24.576 23.2438L24.5293 23.1782L23.9598 22.6593ZM30 41.6973L29.7156 42.0001C29.8125 41.9013 29.9074 41.8004 30 41.6973Z" fill="#202020"/>
<path d="M35 38.1401C34.7942 38.2813 34.7887 38.252 34.809 38.2016C34.8325 38.1481 34.8931 38.0622 34.8871 38.0237C34.8299 37.9969 34.7877 37.993 34.7534 38.0115C34.7596 38.015 34.7655 38.0191 34.7709 38.0237C34.7561 38.0642 34.7381 38.1035 34.7171 38.1413L34.6868 38.1147L34.6216 38.1883L34.2022 38.6111C34.4457 38.4677 34.5946 38.3267 34.604 38.4193C33.3194 39.6466 34.1442 38.7522 33.1515 39.6032L31.7474 41.0065L31.8463 40.8784C31.7284 40.997 31.6822 41.055 31.6499 41.1038L26.9186 45.8334C26.0929 46.7284 27.4906 45.4521 26.9272 46.1573C27.9315 45.1664 29.4787 43.7483 29.4614 43.5629C29.4419 43.6101 29.4038 43.7037 29.6195 43.5147L30.1158 42.8585L29.535 43.3783C30.0348 42.7191 31.94 40.8771 32.3334 40.5923C31.2894 41.6786 31.9292 41.2477 30.3796 42.6674C30.4727 42.6268 30.7921 42.4021 30.4701 42.7482C31.3307 41.8699 32.1649 41.0554 32.9999 40.2259C33.4221 39.8075 33.8409 39.3858 34.2563 38.9609L34.5727 38.6341L34.7316 38.4685L34.8084 38.3879L34.8319 38.3593C34.8939 38.2838 34.9514 38.2097 35 38.1401ZM18.0187 54.9859L18.0233 54.9631C17.9966 54.9991 17.99 55.0129 18.0187 54.9859ZM18.6191 54.4188L19.3718 53.4776L18.0492 54.7979L18.0233 54.9629C18.123 54.8292 18.5537 54.3338 18.7622 54.1826L18.6191 54.4188ZM20.3019 52.4403C19.6447 53.1476 19.7651 53.1929 20.1779 52.8605C19.5855 53.5209 19.7556 53.1006 19.4088 53.6159C19.483 53.6609 20.2255 52.8592 20.3934 52.6719L20.3019 52.4403ZM25.416 47.4827L25.2571 47.7073L25.7424 47.247L25.416 47.4827ZM25.2571 47.7073L24.7752 48.1641C24.8334 48.1572 24.8908 48.15 24.9853 48.0912L25.2571 47.7073ZM23.5113 49.3637C23.274 49.5837 23.0394 49.8065 22.8074 50.0319L23.5113 49.3637ZM24.0729 48.8516L24.046 48.8567L23.5113 49.3637L24.0729 48.8516Z" fill="#202020"/>
<path d="M24.9266 47.2373C24.7954 47.2563 24.6485 47.2856 24 48.0001L24.2178 47.9544L24.9266 47.2373ZM28.672 27.0673L29.2293 27.5856L29.1825 27.518L28.6253 27.0001L28.672 27.0673ZM31.6511 30.3071C31.7654 30.4101 31.8817 30.5105 32 30.6083C31.8572 30.471 31.7389 30.3667 31.6511 30.3071Z" fill="#202020"/>
<path d="M34.479 32.7015C35.0527 33.4009 33.53 31.8961 34.6744 33.1083C34.7234 33.2676 34.1047 32.7827 33.5808 32.197C33.6757 32.1895 34.1505 32.708 33.8637 32.3119C33.4387 32.0007 33.3397 31.819 33.3903 32.0261C32.7266 31.451 32.6033 31.4367 32.1353 31.0641C32.9135 31.784 34.3973 33.4475 35.4406 34.3046C36.0539 34.7385 35.8642 34.2907 36 34.1574C35.9532 34.0461 34.6183 32.6634 34.479 32.7015ZM33.6179 31.5587C33.332 31.2558 33.2373 31.1704 33.0468 31.0001C33.0495 31.0953 33.3796 31.3212 33.6179 31.5587ZM34.5519 39.6685C34.5151 39.7443 34.0096 40.3045 34.1561 40.2225L34.9343 39.3853C34.743 39.5729 34.6534 39.6167 34.5519 39.6685ZM35.2761 39.0184L34.9345 39.3853C35.0241 39.2978 35.1304 39.1851 35.2761 39.0184ZM34.5022 39.6953L34.5519 39.6685C34.5593 39.6531 34.5531 39.6511 34.5022 39.6953ZM21.6641 50.6278C21.6387 50.5792 21.3031 50.9637 21.1346 51.1565C21.2835 51.0117 21.5004 50.8164 21.6641 50.6278ZM8.35067 64.4102L8.00575 64.7006C8.13479 64.605 8.20061 64.5558 8.35067 64.4102ZM4.48515 70.3564C4.48297 70.3731 4.46573 70.4026 4.43976 70.4402C4.46671 70.4038 4.48257 70.3755 4.48515 70.3564ZM4.43976 70.4404C4.25441 70.6899 3.54078 71.3169 3.3477 71.6066L3.36395 71.5614L3.15462 71.8012L3.07791 71.8892C3.06621 71.9028 3.05194 71.9179 3.0442 71.9286C3.03969 71.9367 3.03507 71.9448 3.03033 71.9529L3 72.0001C3.0222 71.9565 3.18951 71.7914 3.32589 71.6512L3.7739 71.189C4.07104 70.8787 4.34104 70.5854 4.43976 70.4404Z" fill="#202020"/>
</svg>
