<svg width="25" height="25" viewBox="0 0 25 25" fill="none" xmlns="http://www.w3.org/2000/svg">
<path d="M23.1904 18.9888C23.2021 18.9527 23.2101 18.9145 23.2101 18.8744V5.63954C23.2101 5.59918 23.2021 5.56082 23.1902 5.52445C23.1884 5.51947 23.1874 5.51448 23.1854 5.5095C23.1695 5.4669 23.1461 5.42854 23.1167 5.39491C23.1147 5.39267 23.1144 5.38993 23.1124 5.38768C23.1112 5.38644 23.1097 5.38594 23.1085 5.38469C23.0771 5.35131 23.0399 5.32441 22.9983 5.30423C22.9951 5.30273 22.9926 5.30074 22.9894 5.29925C22.95 5.28156 22.9072 5.27159 22.8621 5.2686C22.8576 5.26836 22.8534 5.26736 22.8489 5.26736C22.8446 5.26711 22.8409 5.26611 22.8367 5.26611H2.10879C2.10455 5.26611 2.10057 5.26711 2.09633 5.26736C2.09235 5.26761 2.08836 5.26836 2.08438 5.2686C2.03879 5.27159 1.99519 5.28181 1.95533 5.29974C1.95284 5.30074 1.95085 5.30248 1.94836 5.30348C1.90601 5.32366 1.86839 5.35106 1.83675 5.38494C1.83551 5.38619 1.83401 5.38644 1.83277 5.38768C1.83077 5.38968 1.83052 5.39242 1.82853 5.39466C1.79914 5.42829 1.77547 5.4669 1.75953 5.5095C1.75753 5.51448 1.75654 5.51947 1.75479 5.5247C1.74284 5.56107 1.73486 5.59943 1.73486 5.63979V18.8749C1.73486 18.9158 1.74308 18.9547 1.75529 18.9915C1.75703 18.9965 1.75803 19.0012 1.75978 19.0062C1.77597 19.0491 1.79988 19.0877 1.82953 19.1213C1.83127 19.1233 1.83177 19.1258 1.83351 19.1278C1.83501 19.1295 1.837 19.1305 1.83875 19.1323C1.85095 19.145 1.8644 19.1562 1.87836 19.1672C1.88458 19.1719 1.89006 19.1776 1.89654 19.1821C1.91298 19.1936 1.93067 19.2028 1.94886 19.2112C1.95334 19.2132 1.95733 19.2165 1.96181 19.2182C2.0069 19.2374 2.05647 19.2484 2.10854 19.2484H22.8362C22.8882 19.2484 22.9378 19.2377 22.9829 19.2182C22.9899 19.2152 22.9963 19.2107 23.0031 19.2073C23.0185 19.1995 23.034 19.1916 23.0482 19.1819C23.0556 19.1766 23.0624 19.1699 23.0696 19.1642C23.0823 19.1539 23.0947 19.1437 23.1057 19.132C23.1077 19.13 23.1099 19.1285 23.1119 19.1265C23.1139 19.1243 23.1144 19.1213 23.1164 19.1191C23.1456 19.0857 23.169 19.0473 23.1849 19.005C23.1874 18.9995 23.1887 18.9943 23.1904 18.9888ZM2.48247 6.48704L8.77195 12.232L2.48247 18.0227V6.48704ZM15.3733 11.9505C15.3474 11.9674 15.32 11.9816 15.2983 12.0055C15.2901 12.0145 15.2874 12.0262 15.2802 12.0356L12.4726 14.6001L3.07188 6.01322H21.8733L15.3733 11.9505ZM9.32599 12.7379L12.2205 15.3818C12.292 15.4471 12.3822 15.4797 12.4726 15.4797C12.563 15.4797 12.6532 15.4471 12.7245 15.3818L15.5831 12.7708L21.8716 18.501H3.0664L9.32599 12.7379ZM16.1374 12.2646L22.4627 6.48704V18.0287L16.1374 12.2646Z" fill="black"/>
</svg>
