<svg width="40" height="40" viewBox="0 0 40 40" fill="none" xmlns="http://www.w3.org/2000/svg">
<g clip-path="url(#clip0_48_442)">
<path fill-rule="evenodd" clip-rule="evenodd" d="M29.5003 16.4982L28.8564 21.1986H21.1219V37.6498H16.4216V21.1986H9.37104V16.4982H16.4216V12.1904C16.4216 6.21388 20.0926 2.35017 25.7776 2.35017C28.2124 2.35017 29.7306 2.47944 30.6072 2.59694L30.5391 7.04819L26.9245 7.05523C26.8258 7.04583 24.4709 6.86252 22.7717 8.42304C21.6766 9.42656 21.1219 10.8696 21.1219 12.7074V16.4983H29.5003V16.4982ZM24.3487 10.1645C25.2747 9.302 26.7177 9.396 26.8235 9.40071L32.854 9.39835L32.9833 0.700354L32.0761 0.477083C31.4933 0.33375 29.7095 0 25.7776 0C18.7765 0 14.0714 4.90013 14.0714 12.1904V14.1481H7.02087V23.5488H14.0714V40H23.4721V23.5487H30.9034L32.1936 14.1481H23.4721V12.7074C23.4721 11.5629 23.7682 10.7074 24.3487 10.1645Z" fill="black"/>
</g>
<defs>
<clipPath id="clip0_48_442">
<rect width="40" height="40" fill="white"/>
</clipPath>
</defs>
</svg>
