<svg width="70" height="70" viewBox="0 0 80 100" fill="none" xmlns="http://www.w3.org/2000/svg">
<path d="M19.996 100C31.0338 100 39.992 92.5333 39.992 83.3333V66.6666H19.996C8.95821 66.6666 0 74.1333 0 83.3333C0 92.5333 8.95821 100 19.996 100Z" fill="#0ACF83"/>
<path d="M0 50.0002C0 40.8002 8.95821 33.3335 19.996 33.3335H39.992V66.6669H19.996C8.95821 66.6669 0 59.2002 0 50.0002Z" fill="#A259FF"/>
<path d="M0 16.6667C0 7.46667 8.95821 0 19.996 0H39.992V33.3333H19.996C8.95821 33.3333 0 25.8667 0 16.6667Z" fill="#F24E1E"/>
<path d="M39.9922 0H59.9882C71.026 0 79.9842 7.46667 79.9842 16.6667C79.9842 25.8667 71.026 33.3333 59.9882 33.3333H39.9922V0Z" fill="#FF7262"/>
<path d="M79.9842 50.0002C79.9842 59.2002 71.026 66.6669 59.9882 66.6669C48.9504 66.6669 39.9922 59.2002 39.9922 50.0002C39.9922 40.8002 48.9504 33.3335 59.9882 33.3335C71.026 33.3335 79.9842 40.8002 79.9842 50.0002Z" fill="#1ABCFE"/>
</svg>
