<svg width="70" height="70" viewBox="0 0 96 96" fill="none" xmlns="http://www.w3.org/2000/svg">
<path d="M93.9789 43.2L52.8 2.02105C51.5368 0.757895 49.7684 0 48 0C46.2316 0 44.4632 0.757895 43.2 2.02105L34.3579 10.8632L44.7158 21.2211C45.7263 20.7158 46.7368 20.4632 48 20.4632C52.2947 20.4632 55.5789 23.7474 55.5789 28.0421C55.5789 29.3053 55.3263 30.3158 54.8211 31.3263L64.9263 41.4316C65.9368 40.9263 66.9474 40.6737 68.2105 40.6737C72.5053 40.6737 75.7895 43.9579 75.7895 48.2526C75.7895 52.5474 72.5053 55.8316 68.2105 55.8316C63.9158 55.8316 60.6316 52.5474 60.6316 48.2526C60.6316 46.9895 60.8842 45.9789 61.3895 44.9684L51.2842 34.8632C51.0316 34.8632 50.7789 35.1158 50.5263 35.1158V61.3895C53.5579 62.4 55.5789 65.1789 55.5789 68.4632C55.5789 72.7579 52.2947 76.0421 48 76.0421C43.7053 76.0421 40.4211 72.7579 40.4211 68.4632C40.4211 65.1789 42.4421 62.4 45.4737 61.3895V34.8632C42.4421 33.8526 40.4211 31.0737 40.4211 27.7895C40.4211 26.5263 40.6737 25.5158 41.1789 24.5053L30.8211 14.1474L2.02105 43.2C0.757895 44.4632 0 46.2316 0 48C0 49.7684 0.757895 51.5368 2.02105 52.8L43.2 93.9789C44.4632 95.2421 46.2316 96 48 96C49.7684 96 51.5368 95.2421 52.8 93.9789L93.9789 52.8C95.2421 51.5368 96 49.7684 96 48C96 46.2316 95.2421 44.4632 93.9789 43.2Z" fill="#F4511E"/>
</svg>
