<svg width="70" height="70" viewBox="0 0 89 88" fill="none" xmlns="http://www.w3.org/2000/svg">
<path d="M44.5 0C19.9249 0 0 20.0095 0 44.689C0 65.6295 14.3587 83.1512 33.7162 88C33.5085 87.3967 33.375 86.6966 33.375 85.8289V78.1908C31.569 78.1908 28.543 78.1908 27.7828 78.1908C24.7383 78.1908 22.0312 76.8762 20.7185 74.4332C19.2611 71.7183 19.0089 67.566 15.397 65.0262C14.3253 64.1808 15.1411 63.2163 16.376 63.3466C18.6566 63.9946 20.5479 65.5661 22.3279 67.8974C24.1005 70.2324 24.9348 70.7612 28.2464 70.7612C29.8521 70.7612 32.2551 70.6681 34.5172 70.3106C35.7335 67.2085 37.8361 64.3521 40.406 63.004C25.5875 61.4734 18.5157 54.0699 18.5157 44.0186C18.5157 39.6912 20.3513 35.5054 23.47 31.9787C22.4465 28.478 21.1598 21.339 23.8631 18.6204C30.5307 18.6204 34.5617 22.9627 35.5295 24.1358C38.8522 22.9925 42.5012 22.3445 46.3356 22.3445C50.1775 22.3445 53.8413 22.9925 57.1714 24.1432C58.1281 22.9776 62.1628 18.6204 68.8452 18.6204C71.5597 21.3427 70.2581 28.5116 69.2235 32.0047C72.3236 35.524 74.1481 39.6987 74.1481 44.0186C74.1481 54.0625 67.0875 61.4622 52.2912 63.0003C56.363 65.1342 59.3333 71.1299 59.3333 75.6472V85.8289C59.3333 86.2162 59.248 86.4955 59.2035 86.8269C76.5437 80.7232 89 64.1882 89 44.689C89 20.0095 69.0751 0 44.5 0Z" fill="#1B1919"/>
</svg>
