<svg width="60" height="60" viewBox="0 0 60 60" fill="none" xmlns="http://www.w3.org/2000/svg">
<path d="M38.9871 10.5114H21.0129C15.2131 10.5114 10.5114 15.2131 10.5114 21.0129V38.987C10.5114 44.7869 15.2131 49.4886 21.0129 49.4886H38.987C44.7869 49.4886 49.4886 44.7869 49.4886 38.987V21.0129C49.4887 15.2131 44.7869 10.5114 38.9871 10.5114Z" fill="#E9EBE8"/>
<path d="M38.9871 10.5114H21.0129C15.2131 10.5114 10.5114 15.2131 10.5114 21.0129V38.987C10.5114 44.7869 15.2131 49.4886 21.0129 49.4886H38.987C44.7869 49.4886 49.4886 44.7869 49.4886 38.987V21.0129C49.4887 15.2131 44.7869 10.5114 38.9871 10.5114Z" stroke="black" stroke-width="1.77778" stroke-miterlimit="10"/>
<path d="M30 39.4083C35.1961 39.4083 39.4083 35.1961 39.4083 30C39.4083 24.8039 35.1961 20.5917 30 20.5917C24.8039 20.5917 20.5917 24.8039 20.5917 30C20.5917 35.1961 24.8039 39.4083 30 39.4083Z" stroke="black" stroke-width="1.77778" stroke-miterlimit="10"/>
<path d="M41.4244 20.5917C42.5379 20.5917 43.4405 19.6891 43.4405 18.5757C43.4405 17.4622 42.5379 16.5596 41.4244 16.5596C40.311 16.5596 39.4083 17.4622 39.4083 18.5757C39.4083 19.6891 40.311 20.5917 41.4244 20.5917Z" fill="black"/>
</svg>
