<svg width="40" height="40" viewBox="0 0 40 40" fill="none" xmlns="http://www.w3.org/2000/svg">
<g clip-path="url(#clip0_48_446)">
<path d="M5.4 0.333374C3.93336 0.333374 2.6 0.866733 1.6 1.86673C0.533359 2.93337 0 4.26666 0 5.66666C0 7.1333 0.6 8.46666 1.6 9.46666C2.6 10.4667 4 11.0667 5.33336 11C5.33336 11 5.4 11 5.46672 11C6.80008 11 8.06672 10.4667 9.06672 9.46666C10.0667 8.46666 10.6667 7.1333 10.6667 5.66666C10.7334 4.26666 10.1334 2.9333 9.13336 1.9333C8.13336 0.866655 6.8 0.333374 5.4 0.333374ZM8.13336 8.53337C7.4 9.26673 6.4 9.73337 5.33336 9.66673C4.33336 9.66673 3.26672 9.26673 2.53336 8.53337C1.73336 7.80001 1.33336 6.73337 1.33336 5.66673C1.33336 4.60009 1.73336 3.60009 2.53336 2.80009C3.26672 2.06673 4.26672 1.66673 5.4 1.66673C6.4 1.66673 7.4 2.06673 8.13336 2.80009C8.93336 3.60009 9.33336 4.60009 9.33336 5.66673C9.33336 6.73337 8.93336 7.80001 8.13336 8.53337Z" fill="black"/>
<path d="M7.99999 12.3334H2.59999C1.53334 12.3334 0.666626 13.2 0.666626 14.3334V37.6667C0.666626 38.7334 1.59999 39.6667 2.66663 39.6667H7.99999C9.06663 39.6667 9.99999 38.7334 9.99999 37.7334V14.3334C9.99999 13.2667 9.06663 12.3334 7.99999 12.3334ZM8.66663 37.7334C8.66663 38.0667 8.33327 38.3334 7.99999 38.3334H2.66663C2.33327 38.3334 1.99999 38 1.99999 37.6667V14.3334C1.99999 14 2.26663 13.6667 2.59999 13.6667H7.99999C8.33335 13.6667 8.66663 14.0001 8.66663 14.3334V37.7334Z" fill="black"/>
<path d="M30.6666 11.6666H29.2666C26.6666 11.6666 24.2 12.8 22.6 14.6V13.6666C22.6 13 21.9333 12.3333 21.2666 12.3333H14.6C14 12.3333 13.2666 12.8666 13.2666 13.5999V38.4666C13.2666 39.1999 14 39.6665 14.6 39.6665H21.9333C22.5333 39.6665 23.2667 39.1999 23.2667 38.4666V24.0665C23.2667 21.8665 24.8667 20.1332 26.9333 20.1332C28 20.1332 29 20.5332 29.7333 21.2665C30.4 21.8665 30.6667 22.7999 30.6667 23.9999V38.3333C30.6667 38.9999 31.3333 39.6666 32 39.6666H38.6667C39.3333 39.6666 40 39 40 38.3333V21.1333C40 15.8 35.9333 11.6666 30.6666 11.6666ZM38.6666 38.2666L38.6 38.3333H32.0666L32 24C32 22.4 31.6 21.2 30.7333 20.3333C29.7333 19.3333 28.4 18.8 27 18.8C24.2 18.8666 22 21.1333 22 24.0666V38.3333H14.6666V13.6666H21.2666L21.3332 13.7333V17.9333L23.1332 16.1333L23.1999 16.0666C24.5332 14.2 26.8665 13 29.3332 13H30.7332C35.1999 13 38.6666 16.6 38.6666 21.1333V38.2666Z" fill="black"/>
</g>
<defs>
<clipPath id="clip0_48_446">
<rect width="40" height="40" fill="white"/>
</clipPath>
</defs>
</svg>
