<svg width="30" height="30" viewBox="0 0 30 30" fill="none" xmlns="http://www.w3.org/2000/svg">
<path d="M12.7808 13.3382L11.0547 15.0945C11.9535 17.0904 13.8601 19.3136 16.0723 20.0599L17.565 18.5714C17.565 18.5714 21.1036 19.1886 21.8987 19.5765C22.5887 19.9102 22.816 20.651 22.7082 21.5656C22.5915 22.5488 21.3048 24.715 18.9848 24.739C16.6655 24.7623 13.2498 23.015 10.8028 20.4361C8.35577 17.8587 6.1738 14.5898 6.52258 11.8147C6.87206 9.03876 9.28953 8.54307 9.89442 8.49845C10.5062 8.45381 10.9916 8.63301 11.3603 9.0896C11.8347 9.678 12.7808 13.3382 12.7808 13.3382ZM10.8206 9.66358C10.5329 9.28734 10.0386 9.22416 9.54425 9.34089C9.10484 9.44388 7.50441 10.1078 7.27783 11.8861C7.02654 13.8634 8.50133 17.2099 11.1474 19.7701C13.7942 22.3304 16.3442 23.8245 18.5358 24.0036C20.7274 24.1828 21.7964 22.2529 21.953 21.6727C22.1088 21.0932 21.9797 20.5082 21.6646 20.2748C21.2636 19.9775 17.8163 19.3609 17.8163 19.3609L16.2522 20.9023C13.6803 20.0654 11.2587 17.7234 10.2281 14.8611L11.9363 13.1405C11.9356 13.1405 11.109 10.0391 10.8206 9.66358Z" fill="black"/>
</svg>
